<svg width="73" height="21" viewBox="0 0 73 21" fill="none" xmlns="http://www.w3.org/2000/svg">
<g clip-path="url(#clip0_28_660)">
<path d="M17.5676 0.412415V15.8237L19.5498 15.8312V8.49578H24.3389V6.55426H19.5498V2.35393H25.7839V0.412415H17.5676ZM29.3625 3.54C30.0812 3.54 30.6562 2.9583 30.6562 2.24817C30.6562 1.53804 30.0737 0.956342 29.3625 0.956342C28.6437 0.956342 28.0687 1.53804 28.0687 2.24817C28.0687 2.9583 28.6513 3.54 29.3625 3.54ZM28.3562 5.48151V15.8237H30.3385V5.48151H28.3562Z" fill="black"/>
<path fill-rule="evenodd" clip-rule="evenodd" d="M37.6998 5.17935C35.0594 5.17935 33.2209 7.40794 33.2209 10.052C33.2209 12.6961 35.0594 14.9247 37.6998 14.9247C38.9103 14.9247 39.9015 14.4563 40.6278 13.7009V15.0682C40.6278 16.7831 39.2811 18.2109 37.5183 18.2109C36.8827 18.2109 36.2548 17.9692 35.7555 17.6217L34.7568 19.3441C35.5512 19.8578 36.4969 20.1525 37.5107 20.1525C40.3251 20.1525 42.6024 17.8785 42.6024 15.0682V5.48153H40.6278V6.40319C39.9015 5.64773 38.9103 5.17935 37.6998 5.17935ZM35.2107 10.052C35.2107 8.4127 36.4666 7.12087 37.9192 7.12087C39.3719 7.12087 40.6278 8.4127 40.6278 10.052C40.6278 11.6914 39.3719 12.9832 37.9192 12.9832C36.4666 12.9832 35.2107 11.6914 35.2107 10.052Z" fill="black"/>
<path d="M49.7671 7.12087C48.5944 7.12087 47.6411 8.11807 47.6411 9.28902V15.8237H45.6589V5.48153H47.6411V6.42585C48.2237 5.67795 49.0786 5.17935 50.1984 5.17935C51.5904 5.17935 52.6572 5.86682 53.2776 6.92445C53.9661 5.90459 55.0858 5.17935 56.44 5.17935C58.7022 5.17935 60.1094 7 60.117 9.25125V15.8237H58.1348V9.28147C58.1348 8.11051 57.1815 7.11331 56.0088 7.11331C54.8361 7.11331 53.8828 8.11051 53.8828 9.28147V15.8237H51.9006V9.28147C51.8931 8.11051 50.9398 7.12087 49.7671 7.12087Z" fill="black"/>
<path fill-rule="evenodd" clip-rule="evenodd" d="M70.6938 6.65249C69.8086 5.73839 68.5981 5.17935 67.1985 5.17935C64.2479 5.17935 62.1446 7.67991 62.1446 10.6564C62.1446 13.6329 64.2403 16.1334 67.1985 16.1334C68.5981 16.1334 69.8086 15.5669 70.6938 14.6603V15.8237H72.676V5.48153H70.6938V6.65249ZM64.1344 10.6564C64.1344 8.68466 65.6475 7.12087 67.4179 7.12087C69.1807 7.12087 70.7014 8.67711 70.7014 10.6564C70.7014 12.6281 69.1882 14.1919 67.4179 14.1919C65.6475 14.1844 64.1344 12.6281 64.1344 10.6564Z" fill="black"/>
<path d="M6.66541 10.3995C6.66541 8.56376 8.15585 7.06796 10.0019 7.06796C11.8403 7.06796 13.3383 8.55621 13.3383 10.3995C13.3383 12.2353 11.8479 13.7311 10.0019 13.7311C8.16341 13.7311 6.66541 12.2353 6.66541 10.3995Z" fill="#1ABCFE"/>
<path d="M0 17.0551C0 15.2193 1.49044 13.7235 3.33647 13.7235H6.67294V17.0551C6.67294 18.8908 5.1825 20.3866 3.33647 20.3866C1.49044 20.3866 0 18.8984 0 17.0551Z" fill="#0ACF83"/>
<path d="M6.66541 0.412431V7.06798H10.0019C11.8403 7.06798 13.3383 5.57974 13.3383 3.73643C13.3383 1.90068 11.8479 0.404877 10.0019 0.404877H6.66541V0.412431Z" fill="#FF7262"/>
<path d="M0 3.74397C0 5.57972 1.49044 7.07552 3.33647 7.07552H6.67294V0.412415H3.33647C1.49044 0.412415 0 1.90066 0 3.74397Z" fill="#F24E1E"/>
<path d="M0 10.3995C0 12.2353 1.49044 13.7311 3.33647 13.7311H6.67294V7.06796H3.33647C1.49044 7.06796 0 8.56376 0 10.3995Z" fill="#A259FF"/>
</g>
<defs>
<clipPath id="clip0_28_660">
<rect width="72.676" height="20" fill="white" transform="translate(0 0.395752)"/>
</clipPath>
</defs>
</svg>
