<svg width="30" height="23" viewBox="0 0 30 23" fill="none" xmlns="http://www.w3.org/2000/svg">
<g id="Group">
<path id="Vector" d="M41.5315 0.395951C41.4738 0.396055 41.4172 0.411184 41.3671 0.439848C41.3173 0.469002 41.2759 0.510632 41.247 0.560638C41.2182 0.610644 41.2029 0.6673 41.2026 0.725025V9.11451C41.2026 9.19682 41.1642 9.27059 41.0929 9.31189C41.0579 9.33227 41.0182 9.34301 40.9777 9.34301C40.9373 9.34301 40.8975 9.33227 40.8626 9.31189L39.4917 8.52236C39.3917 8.4645 39.2782 8.43404 39.1627 8.43404C39.0472 8.43404 38.9337 8.4645 38.8337 8.52236L33.3615 11.6806C33.157 11.7986 33.0323 12.0257 33.0323 12.2618V18.5786C33.0322 18.6941 33.0625 18.8077 33.1203 18.9079C33.1781 19.008 33.2612 19.0911 33.3614 19.1488L38.8337 22.3072C38.9337 22.3652 39.0472 22.3958 39.1627 22.3958C39.2783 22.3958 39.3918 22.3652 39.4917 22.3072L44.964 19.1488C45.0642 19.0911 45.1474 19.008 45.2052 18.9079C45.2629 18.8077 45.2933 18.6941 45.2931 18.5786V2.83055C45.2931 2.59095 45.1623 2.36613 44.9532 2.24937L41.6962 0.428722C41.6449 0.400219 41.5882 0.395342 41.5315 0.395951ZM6.32869 8.28093C6.22429 8.28519 6.12628 8.30333 6.03254 8.35775L0.56037 11.516C0.460125 11.5736 0.376897 11.6567 0.31913 11.7568C0.261363 11.857 0.231113 11.9706 0.231448 12.0862L0.242575 20.5637C0.242575 20.6816 0.303543 20.7911 0.407188 20.8487C0.508852 20.9097 0.634903 20.9097 0.73611 20.8487L3.98219 18.9843C4.18796 18.8624 4.32209 18.6496 4.32209 18.4142V14.4551C4.32209 14.2189 4.44631 14.0025 4.65131 13.8851L6.03315 13.0846C6.133 13.0265 6.24657 12.9962 6.36207 12.9968C6.47764 12.9961 6.59128 13.0264 6.69115 13.0846L8.07237 13.8846C8.27707 14.002 8.4013 14.2187 8.4013 14.4547V18.4136C8.4013 18.6493 8.53847 18.8633 8.74119 18.9837L11.9873 20.8481C12.0894 20.909 12.2151 20.909 12.3162 20.8481C12.4168 20.7902 12.4808 20.6809 12.4808 20.5631L12.4918 12.0859C12.4924 11.9703 12.4623 11.8565 12.4045 11.7563C12.3467 11.6561 12.2633 11.5731 12.1629 11.5157L6.69069 8.35759C6.59817 8.30333 6.49971 8.28504 6.39454 8.28077H6.329L6.32869 8.28093ZM55.5029 8.35775C55.3874 8.35743 55.2739 8.38772 55.1739 8.44554L49.7015 11.604C49.4973 11.7221 49.3723 11.9381 49.3723 12.174V18.4908C49.3723 18.7282 49.5061 18.9434 49.7122 19.0608L55.1406 22.1549C55.3411 22.2692 55.5857 22.2779 55.7877 22.1656L59.0776 20.3341C59.182 20.2762 59.2526 20.168 59.2529 20.0491C59.2532 19.9302 59.1915 19.8232 59.0883 19.7641L53.5829 16.6056C53.4799 16.5468 53.4076 16.4278 53.4076 16.3095V14.3343C53.4076 14.2163 53.4808 14.1081 53.5829 14.0492L55.2937 13.0622C55.3955 13.0033 55.5205 13.0033 55.6229 13.0622L57.3344 14.0492C57.3845 14.078 57.4261 14.1196 57.455 14.1696C57.4839 14.2197 57.499 14.2765 57.4989 14.3343V15.8915C57.4987 15.9493 57.5139 16.0061 57.5427 16.0562C57.5716 16.1063 57.6132 16.1478 57.6633 16.1766C57.7659 16.2357 57.8901 16.236 57.9926 16.1766L61.2714 14.2687C61.4749 14.1505 61.6006 13.9339 61.6006 13.6987V12.1745C61.6007 12.0589 61.5702 11.9454 61.5125 11.8453C61.4547 11.7452 61.3716 11.6621 61.2716 11.6043L55.8322 8.44584C55.7322 8.38796 55.6186 8.35766 55.5031 8.35805L55.5029 8.35775ZM39.1407 13.0736C39.1713 13.0735 39.2015 13.081 39.2285 13.0954L41.1037 14.1811C41.1546 14.2105 41.1915 14.2649 41.1915 14.3236V16.495C41.1915 16.554 41.1549 16.6082 41.1037 16.6375L39.2285 17.7232C39.1774 17.7521 39.1151 17.7521 39.0639 17.7232L37.1886 16.6375C37.1376 16.6081 37.1009 16.5537 37.1009 16.495V14.3233C37.1009 14.2645 37.1377 14.2105 37.1886 14.1808L39.0639 13.0953C39.0895 13.0805 39.112 13.0736 39.1407 13.0736Z" fill="#404137"/>
<path id="Vector_2" d="M22.7674 8.32471C22.6518 8.32451 22.5383 8.3548 22.4382 8.41251L16.9658 11.56C16.7613 11.6779 16.6369 11.9052 16.6369 12.1411V18.4579C16.6366 18.5735 16.6669 18.6871 16.7246 18.7872C16.7824 18.8873 16.8656 18.9704 16.9658 19.0279L22.4382 22.1864C22.5381 22.2444 22.6516 22.2749 22.7672 22.2749C22.8827 22.2749 22.9962 22.2444 23.0962 22.1864L28.5685 19.0279C28.6687 18.9702 28.7518 18.8871 28.8096 18.787C28.8674 18.6869 28.8977 18.5733 28.8976 18.4577V12.141C28.8976 11.9047 28.7732 11.6776 28.5683 11.5598L23.096 8.41235C22.996 8.35437 22.8824 8.32407 22.7668 8.32456L22.7674 8.32471ZM55.4919 13.9616C55.4701 13.9616 55.4459 13.9616 55.4261 13.9723L54.3733 14.5866C54.3537 14.5975 54.3373 14.6133 54.3257 14.6326C54.3142 14.6518 54.3079 14.6737 54.3074 14.6962V15.9026C54.3074 15.948 54.3338 15.9894 54.3733 16.0123L55.4261 16.6154C55.4441 16.6266 55.465 16.6326 55.4863 16.6326C55.5075 16.6326 55.5284 16.6266 55.5465 16.6154L56.5992 16.0123C56.6382 15.9899 56.6651 15.948 56.6651 15.9026V14.6962C56.6651 14.6507 56.6384 14.6093 56.5992 14.5864L55.5465 13.9722C55.527 13.9606 55.5135 13.9615 55.4916 13.9615L55.4919 13.9616Z" fill="#83CD29"/>
</g>
</svg>
