<svg width="103" height="31" viewBox="0 0 103 31" fill="none" xmlns="http://www.w3.org/2000/svg">
<path d="M35.576 9.85751H38.5986L45.0045 20.0002V9.85751H47.7948V24.2293H44.7927L38.3662 14.1076V24.2293H35.576V9.85751Z" fill="#012A35"/>
<path d="M60.2671 24.2293H57.667V22.624C57.0751 23.7537 55.8703 24.3898 54.3486 24.3898C51.9386 24.3898 50.3735 22.7062 50.3735 20.2832V13.8809H52.9737V19.7534C52.9737 21.1701 53.862 22.1554 55.1936 22.1554C56.6523 22.1554 57.667 21.0467 57.667 19.5276V13.8809H60.2671V24.2293Z" fill="#012A35"/>
<path d="M69.3148 24.0657L66.8204 20.6162L64.3256 24.0657H61.5558L65.4041 18.6657L61.8522 13.7173H64.6849L66.8204 16.6952L68.9336 13.7173H71.7882L68.2149 18.6657L72.0627 24.0657H69.3148Z" fill="#012A35"/>
<path d="M77.3479 10.7603V13.8807H80.3078V15.9957H77.3479V21.1328C77.3479 21.3053 77.4183 21.4708 77.5441 21.5929C77.6695 21.7149 77.8396 21.7837 78.0176 21.7839H80.3078V24.2251H78.5951C76.2694 24.2251 74.7477 22.9107 74.7477 20.6131V15.9977H72.6551V13.8807H73.968C74.5804 13.8807 74.9369 13.5265 74.9369 12.9405V10.7603H77.3479Z" fill="#012A35"/>
<path d="M86.8621 20.9745V9.85751H89.6515V20.1226C89.6515 22.8948 88.2775 24.2293 85.9523 24.2293H82.7053V21.7881H86.0246C86.2464 21.7881 86.4599 21.7024 86.6169 21.5499C86.774 21.3972 86.8621 21.1903 86.8621 20.9745Z" fill="#012A35"/>
<path d="M91.3228 19.4041H94.0087C94.1573 21.0094 95.2568 22.0318 97.0325 22.0318C98.618 22.0318 99.7184 21.4168 99.7184 20.1436C99.7184 17.0633 91.7641 19.1984 91.7641 13.6961C91.766 11.3353 93.8591 9.69479 96.8661 9.69479C99.9953 9.69479 102.109 11.4396 102.238 14.1295H99.5665C99.4406 12.8774 98.4302 12.0356 96.861 12.0356C95.4022 12.0356 94.4934 12.6928 94.4934 13.6981C94.4934 16.8807 102.551 14.5008 102.551 20.1044C102.551 22.7733 100.288 24.3957 97.0334 24.3957C93.6722 24.3957 91.4738 22.4241 91.326 19.4061" fill="#012A35"/>
<path fill-rule="evenodd" clip-rule="evenodd" d="M13.8658 6.97788C13.0853 5.64897 11.1342 5.64897 10.3537 6.97788L1.84793 21.461C1.06747 22.7899 2.04304 24.451 3.60397 24.451H10.2441C9.5771 23.8738 9.33009 22.8752 9.83483 22.0184L16.2768 11.0831L13.8658 6.97788Z" fill="#80EEC0"/>
<path d="M19.2554 10.1546C19.9013 9.06729 21.516 9.06729 22.1619 10.1546L29.2012 22.0044C29.8471 23.0916 29.0398 24.4508 27.7479 24.4508H13.6694C12.3776 24.4508 11.5702 23.0916 12.2161 22.0044L19.2554 10.1546Z" fill="#00DC82"/>
</svg>
