<svg width="526" height="208" viewBox="0 0 526 208" fill="none" xmlns="http://www.w3.org/2000/svg">
<g filter="url(#filter0_dd_28_739)">
<rect x="1" y="1.198" width="476" height="147" rx="20" fill="#FBFDFF"/>
</g>
<path d="M41.62 87.558C43.42 87.558 44.99 87.078 46.33 86.118C47.67 85.138 48.71 83.788 49.45 82.068C50.21 80.328 50.59 78.308 50.59 76.008C50.59 73.708 50.21 71.698 49.45 69.978C48.71 68.238 47.66 66.888 46.3 65.928C44.96 64.968 43.39 64.488 41.59 64.488C39.83 64.488 38.28 64.968 36.94 65.928C35.6 66.888 34.55 68.228 33.79 69.948C33.05 71.668 32.68 73.688 32.68 76.008C32.68 78.308 33.05 80.328 33.79 82.068C34.55 83.808 35.6 85.158 36.94 86.118C38.3 87.078 39.86 87.558 41.62 87.558ZM41.62 83.838C40.1 83.838 38.91 83.138 38.05 81.738C37.19 80.338 36.76 78.428 36.76 76.008C36.76 73.568 37.18 71.658 38.02 70.278C38.88 68.898 40.07 68.208 41.59 68.208C43.13 68.208 44.33 68.908 45.19 70.308C46.07 71.688 46.51 73.588 46.51 76.008C46.51 78.428 46.08 80.338 45.22 81.738C44.36 83.138 43.16 83.838 41.62 83.838ZM61.3002 87.558C62.8002 87.558 64.1302 87.238 65.2902 86.598C66.4702 85.938 67.3902 85.048 68.0502 83.928C68.7102 82.788 69.0402 81.498 69.0402 80.058C69.0402 78.698 68.7302 77.488 68.1102 76.428C67.5102 75.368 66.6802 74.528 65.6202 73.908C64.5602 73.288 63.3502 72.978 61.9902 72.978C61.6702 72.978 61.3702 72.998 61.0902 73.038L67.4802 64.848H62.6202L56.3802 72.948C55.6202 73.948 55.0302 74.858 54.6102 75.678C54.1902 76.498 53.9002 77.268 53.7402 77.988C53.6002 78.708 53.5302 79.428 53.5302 80.148C53.5302 81.568 53.8602 82.838 54.5202 83.958C55.1802 85.078 56.0902 85.958 57.2502 86.598C58.4302 87.238 59.7802 87.558 61.3002 87.558ZM61.3002 83.868C60.2602 83.868 59.3802 83.518 58.6602 82.818C57.9602 82.118 57.6102 81.218 57.6102 80.118C57.6102 78.998 57.9602 78.098 58.6602 77.418C59.3802 76.718 60.2602 76.368 61.3002 76.368C62.3402 76.368 63.2102 76.718 63.9102 77.418C64.6102 78.098 64.9602 78.998 64.9602 80.118C64.9602 81.218 64.6002 82.118 63.8802 82.818C63.1802 83.518 62.3202 83.868 61.3002 83.868ZM73.9771 75.078H77.9371V70.878H73.9771V75.078ZM73.9771 87.198H77.9371V82.998H73.9771V87.198ZM83.005 87.198H98.005V83.748H88.315L93.565 78.228C94.985 76.748 96.025 75.438 96.685 74.298C97.365 73.158 97.705 71.978 97.705 70.758C97.705 69.518 97.395 68.428 96.775 67.488C96.175 66.548 95.325 65.818 94.225 65.298C93.145 64.758 91.885 64.488 90.445 64.488C89.245 64.488 88.105 64.728 87.025 65.208C85.965 65.668 85.065 66.338 84.325 67.218C83.585 68.078 83.095 69.098 82.855 70.278L86.425 71.388C86.745 70.328 87.255 69.528 87.955 68.988C88.655 68.428 89.485 68.148 90.445 68.148C91.365 68.148 92.115 68.418 92.695 68.958C93.295 69.498 93.595 70.238 93.595 71.178C93.595 71.738 93.465 72.288 93.205 72.828C92.945 73.368 92.485 74.018 91.825 74.778C91.165 75.538 90.245 76.538 89.065 77.778L83.005 84.108V87.198ZM110.145 87.558C111.945 87.558 113.515 87.078 114.855 86.118C116.195 85.138 117.235 83.788 117.975 82.068C118.735 80.328 119.115 78.308 119.115 76.008C119.115 73.708 118.735 71.698 117.975 69.978C117.235 68.238 116.185 66.888 114.825 65.928C113.485 64.968 111.915 64.488 110.115 64.488C108.355 64.488 106.805 64.968 105.465 65.928C104.125 66.888 103.075 68.228 102.315 69.948C101.575 71.668 101.205 73.688 101.205 76.008C101.205 78.308 101.575 80.328 102.315 82.068C103.075 83.808 104.125 85.158 105.465 86.118C106.825 87.078 108.385 87.558 110.145 87.558ZM110.145 83.838C108.625 83.838 107.435 83.138 106.575 81.738C105.715 80.338 105.285 78.428 105.285 76.008C105.285 73.568 105.705 71.658 106.545 70.278C107.405 68.898 108.595 68.208 110.115 68.208C111.655 68.208 112.855 68.908 113.715 70.308C114.595 71.688 115.035 73.588 115.035 76.008C115.035 78.428 114.605 80.338 113.745 81.738C112.885 83.138 111.685 83.838 110.145 83.838ZM126.428 87.198H130.838L132.458 82.398H141.098L142.688 87.198H147.128L139.418 64.848H134.138L126.428 87.198ZM133.628 78.798L136.778 69.378L139.928 78.798H133.628ZM149.615 87.198H153.695V71.718L160.625 81.198H161.105L168.005 72.018V87.198H172.115V64.848H168.215L160.955 74.928L153.515 64.848H149.615V87.198Z" fill="#2C3774"/>
<path d="M38.9844 103.532H40.3379V113.198H38.8682L33.8164 105.528V113.198H32.4697V103.532H33.9258L38.9844 111.168V103.532ZM45.8135 113.328C44.8063 113.328 43.9769 113.009 43.3252 112.371C42.6735 111.728 42.3477 110.874 42.3477 109.807C42.3477 108.741 42.6712 107.889 43.3184 107.251C43.9701 106.613 44.8018 106.294 45.8135 106.294C46.8252 106.294 47.6546 106.613 48.3018 107.251C48.9489 107.889 49.2725 108.741 49.2725 109.807C49.2725 110.874 48.9489 111.728 48.3018 112.371C47.6546 113.009 46.8252 113.328 45.8135 113.328ZM45.7998 112.248C46.4287 112.248 46.9482 112.024 47.3584 111.578C47.7686 111.127 47.9736 110.537 47.9736 109.807C47.9736 109.078 47.7686 108.49 47.3584 108.044C46.9482 107.597 46.4287 107.374 45.7998 107.374C45.18 107.374 44.6673 107.597 44.2617 108.044C43.8561 108.49 43.6533 109.078 43.6533 109.807C43.6533 110.537 43.8561 111.127 44.2617 111.578C44.6673 112.024 45.18 112.248 45.7998 112.248ZM55.0488 106.43H56.4502L53.6748 113.198H52.5469L49.7852 106.43H51.1797L53.1143 111.68L55.0488 106.43ZM63.5254 109.684L63.5049 110.033H58.2617C58.2845 110.748 58.4941 111.298 58.8906 111.68C59.2871 112.063 59.7816 112.255 60.374 112.255C60.7751 112.255 61.1351 112.152 61.4541 111.947C61.7731 111.742 62.0192 111.455 62.1924 111.086L63.3818 111.318C63.1449 111.942 62.7575 112.435 62.2197 112.795C61.6865 113.15 61.0758 113.328 60.3877 113.328C59.3669 113.328 58.542 113.016 57.9131 112.391C57.2887 111.762 56.9766 110.903 56.9766 109.814C56.9766 108.73 57.291 107.873 57.9199 107.244C58.5488 106.61 59.3577 106.294 60.3467 106.294C61.3037 106.294 62.0716 106.583 62.6504 107.162C63.2292 107.741 63.5208 108.581 63.5254 109.684ZM60.3535 107.292C59.8158 107.292 59.3669 107.44 59.0068 107.736C58.6468 108.028 58.4167 108.461 58.3164 109.035H62.2061C62.1514 108.465 61.9577 108.032 61.625 107.736C61.2923 107.44 60.8685 107.292 60.3535 107.292ZM72.4258 106.294C73.0911 106.294 73.6243 106.485 74.0254 106.868C74.431 107.246 74.6338 107.782 74.6338 108.474V113.198H73.3213V108.823C73.3213 108.349 73.2005 107.991 72.959 107.75C72.722 107.508 72.4212 107.387 72.0566 107.387C71.6374 107.387 71.2979 107.529 71.0381 107.811C70.7783 108.089 70.6484 108.511 70.6484 109.076V113.198H69.3154V108.871C69.3154 108.383 69.1947 108.014 68.9531 107.763C68.7116 107.513 68.404 107.387 68.0303 107.387C67.6156 107.387 67.276 107.531 67.0117 107.818C66.752 108.105 66.6221 108.54 66.6221 109.124V113.198H65.3164V106.43H66.6221V107.292C67.0459 106.626 67.6702 106.294 68.4951 106.294C68.9417 106.294 69.3337 106.387 69.6709 106.574C70.0081 106.761 70.2611 107.032 70.4297 107.387C70.6393 107.032 70.915 106.761 71.2568 106.574C71.5986 106.387 71.9883 106.294 72.4258 106.294ZM80.5195 106.294C81.0983 106.294 81.627 106.437 82.1055 106.724C82.5885 107.007 82.9736 107.419 83.2607 107.962C83.5479 108.499 83.6914 109.117 83.6914 109.814C83.6914 110.867 83.3861 111.719 82.7754 112.371C82.1693 113.018 81.4173 113.342 80.5195 113.342C79.9954 113.342 79.5238 113.219 79.1045 112.972C78.6898 112.726 78.3776 112.391 78.168 111.968L78.1338 113.198H76.8691V102.698H78.1748L78.1816 107.634C78.3958 107.219 78.7103 106.893 79.125 106.656C79.5397 106.414 80.0046 106.294 80.5195 106.294ZM78.7012 111.537C79.1159 111.993 79.6263 112.22 80.2324 112.22C80.8385 112.22 81.3467 111.999 81.7568 111.557C82.1715 111.111 82.3789 110.53 82.3789 109.814C82.3789 109.099 82.1715 108.52 81.7568 108.078C81.3467 107.636 80.8385 107.415 80.2324 107.415C79.6309 107.415 79.1227 107.645 78.708 108.105C78.2933 108.561 78.0859 109.131 78.0859 109.814C78.0859 110.502 78.291 111.077 78.7012 111.537ZM91.498 109.684L91.4775 110.033H86.2344C86.2572 110.748 86.4668 111.298 86.8633 111.68C87.2598 112.063 87.7542 112.255 88.3467 112.255C88.7477 112.255 89.1077 112.152 89.4268 111.947C89.7458 111.742 89.9919 111.455 90.165 111.086L91.3545 111.318C91.1175 111.942 90.7301 112.435 90.1924 112.795C89.6592 113.15 89.0485 113.328 88.3604 113.328C87.3395 113.328 86.5146 113.016 85.8857 112.391C85.2614 111.762 84.9492 110.903 84.9492 109.814C84.9492 108.73 85.2637 107.873 85.8926 107.244C86.5215 106.61 87.3304 106.294 88.3193 106.294C89.2764 106.294 90.0443 106.583 90.623 107.162C91.2018 107.741 91.4935 108.581 91.498 109.684ZM88.3262 107.292C87.7884 107.292 87.3395 107.44 86.9795 107.736C86.6195 108.028 86.3893 108.461 86.2891 109.035H90.1787C90.124 108.465 89.9303 108.032 89.5977 107.736C89.265 107.44 88.8411 107.292 88.3262 107.292ZM94.5605 107.606C94.7246 107.242 95.0049 106.943 95.4014 106.711C95.7979 106.478 96.2354 106.36 96.7139 106.355V107.572C96.0166 107.572 95.4902 107.734 95.1348 108.057C94.7793 108.381 94.6016 108.907 94.6016 109.636V113.198H93.2891V106.43H94.5605V107.606ZM104.521 113.328C103.477 113.328 102.67 112.909 102.101 112.07C101.535 111.227 101.253 109.99 101.253 108.358C101.253 106.727 101.533 105.494 102.094 104.66C102.654 103.821 103.463 103.402 104.521 103.402C105.569 103.402 106.373 103.821 106.934 104.66C107.499 105.494 107.781 106.727 107.781 108.358C107.781 109.99 107.496 111.227 106.927 112.07C106.362 112.909 105.56 113.328 104.521 113.328ZM104.521 112.118C105.149 112.118 105.63 111.806 105.963 111.181C106.3 110.557 106.469 109.616 106.469 108.358C106.469 107.091 106.298 106.15 105.956 105.535C105.619 104.92 105.14 104.612 104.521 104.612C103.896 104.612 103.415 104.92 103.078 105.535C102.741 106.146 102.572 107.087 102.572 108.358C102.572 109.621 102.739 110.564 103.071 111.188C103.404 111.808 103.887 112.118 104.521 112.118ZM114.856 112.528C114.228 113.061 113.437 113.328 112.484 113.328C111.532 113.328 110.739 113.061 110.105 112.528C109.477 111.995 109.162 111.291 109.162 110.416C109.162 109.81 109.319 109.288 109.634 108.85C109.953 108.408 110.383 108.082 110.926 107.873C110.538 107.668 110.231 107.39 110.003 107.039C109.775 106.688 109.661 106.296 109.661 105.863C109.661 105.143 109.928 104.553 110.461 104.093C110.994 103.632 111.669 103.402 112.484 103.402C113.286 103.402 113.954 103.632 114.487 104.093C115.021 104.553 115.287 105.143 115.287 105.863C115.287 106.296 115.175 106.688 114.952 107.039C114.729 107.39 114.426 107.668 114.043 107.873C114.581 108.082 115.007 108.408 115.321 108.85C115.64 109.292 115.8 109.814 115.8 110.416C115.8 111.291 115.485 111.995 114.856 112.528ZM112.484 107.449C112.926 107.449 113.302 107.303 113.612 107.011C113.922 106.72 114.077 106.362 114.077 105.938C114.077 105.524 113.922 105.175 113.612 104.892C113.302 104.605 112.926 104.462 112.484 104.462C112.033 104.462 111.655 104.603 111.35 104.885C111.044 105.168 110.892 105.519 110.892 105.938C110.892 106.362 111.044 106.72 111.35 107.011C111.655 107.303 112.033 107.449 112.484 107.449ZM112.484 112.125C113.054 112.125 113.528 111.956 113.906 111.619C114.289 111.277 114.48 110.826 114.48 110.265C114.48 109.714 114.289 109.272 113.906 108.939C113.528 108.607 113.054 108.44 112.484 108.44C111.91 108.44 111.432 108.607 111.049 108.939C110.666 109.272 110.475 109.714 110.475 110.265C110.475 110.826 110.664 111.277 111.042 111.619C111.425 111.956 111.906 112.125 112.484 112.125ZM119.293 113.089C119.124 113.253 118.924 113.335 118.691 113.335C118.459 113.335 118.258 113.253 118.09 113.089C117.926 112.92 117.844 112.719 117.844 112.487C117.844 112.259 117.928 112.061 118.097 111.892C118.265 111.719 118.464 111.633 118.691 111.633C118.924 111.633 119.124 111.719 119.293 111.892C119.462 112.061 119.546 112.259 119.546 112.487C119.546 112.719 119.462 112.92 119.293 113.089ZM123.518 112.002H128.214V113.198H121.645V112.207L125.514 108.215C125.915 107.804 126.193 107.438 126.348 107.114C126.503 106.79 126.58 106.471 126.58 106.157C126.58 105.633 126.425 105.227 126.115 104.94C125.805 104.649 125.4 104.503 124.898 104.503C124.365 104.503 123.941 104.662 123.627 104.981C123.317 105.296 123.162 105.792 123.162 106.471V107.189L121.85 107.066V106.485C121.85 105.483 122.125 104.717 122.677 104.188C123.228 103.655 123.969 103.388 124.898 103.388C125.769 103.388 126.482 103.635 127.038 104.127C127.594 104.614 127.872 105.284 127.872 106.136C127.872 106.638 127.763 107.1 127.544 107.524C127.33 107.943 126.986 108.399 126.512 108.891L123.518 112.002ZM132.903 113.328C131.86 113.328 131.053 112.909 130.483 112.07C129.918 111.227 129.636 109.99 129.636 108.358C129.636 106.727 129.916 105.494 130.477 104.66C131.037 103.821 131.846 103.402 132.903 103.402C133.951 103.402 134.756 103.821 135.316 104.66C135.882 105.494 136.164 106.727 136.164 108.358C136.164 109.99 135.879 111.227 135.31 112.07C134.744 112.909 133.942 113.328 132.903 113.328ZM132.903 112.118C133.532 112.118 134.013 111.806 134.346 111.181C134.683 110.557 134.852 109.616 134.852 108.358C134.852 107.091 134.681 106.15 134.339 105.535C134.002 104.92 133.523 104.612 132.903 104.612C132.279 104.612 131.798 104.92 131.461 105.535C131.124 106.146 130.955 107.087 130.955 108.358C130.955 109.621 131.121 110.564 131.454 111.188C131.787 111.808 132.27 112.118 132.903 112.118ZM139.432 112.002H144.128V113.198H137.559V112.207L141.428 108.215C141.829 107.804 142.107 107.438 142.262 107.114C142.417 106.79 142.494 106.471 142.494 106.157C142.494 105.633 142.339 105.227 142.029 104.94C141.719 104.649 141.314 104.503 140.812 104.503C140.279 104.503 139.855 104.662 139.541 104.981C139.231 105.296 139.076 105.792 139.076 106.471V107.189L137.764 107.066V106.485C137.764 105.483 138.039 104.717 138.591 104.188C139.142 103.655 139.883 103.388 140.812 103.388C141.683 103.388 142.396 103.635 142.952 104.127C143.508 104.614 143.786 105.284 143.786 106.136C143.786 106.638 143.677 107.1 143.458 107.524C143.244 107.943 142.9 108.399 142.426 108.891L139.432 112.002ZM148.756 113.328C146.582 113.328 145.495 112.175 145.495 109.869L146.828 109.801C146.828 110.594 146.969 111.184 147.252 111.571C147.539 111.958 148.04 112.152 148.756 112.152C149.353 112.152 149.831 111.986 150.191 111.653C150.556 111.32 150.738 110.885 150.738 110.347C150.738 109.791 150.563 109.354 150.212 109.035C149.866 108.716 149.426 108.556 148.893 108.556H148.428V107.469H148.879C149.275 107.469 149.613 107.326 149.891 107.039C150.169 106.752 150.308 106.399 150.308 105.979C150.308 105.56 150.16 105.22 149.863 104.961C149.567 104.701 149.191 104.571 148.735 104.571C148.17 104.571 147.774 104.74 147.546 105.077C147.323 105.41 147.211 105.872 147.211 106.465L145.878 106.417C145.878 105.446 146.124 104.701 146.616 104.181C147.113 103.662 147.815 103.402 148.722 103.402C149.528 103.402 150.201 103.639 150.738 104.113C151.281 104.587 151.552 105.177 151.552 105.884C151.552 106.362 151.422 106.781 151.162 107.141C150.907 107.501 150.592 107.759 150.219 107.914C150.761 108.069 151.205 108.358 151.552 108.782C151.903 109.206 152.078 109.746 152.078 110.402C152.078 111.277 151.768 111.983 151.148 112.521C150.529 113.059 149.731 113.328 148.756 113.328ZM158.183 115.297V102.698H159.044V115.297H158.183ZM167.616 113.198L164.889 103.532H166.304L168.532 111.393L170.897 103.532H172.087L174.452 111.393L176.688 103.532H178.096L175.368 113.198L173.734 113.198L171.492 106.007L169.25 113.198H167.616ZM185.041 109.684L185.021 110.033H179.777C179.8 110.748 180.01 111.298 180.406 111.68C180.803 112.063 181.297 112.255 181.89 112.255C182.291 112.255 182.651 112.152 182.97 111.947C183.289 111.742 183.535 111.455 183.708 111.086L184.897 111.318C184.66 111.942 184.273 112.435 183.735 112.795C183.202 113.15 182.591 113.328 181.903 113.328C180.882 113.328 180.058 113.016 179.429 112.391C178.804 111.762 178.492 110.903 178.492 109.814C178.492 108.73 178.807 107.873 179.436 107.244C180.064 106.61 180.873 106.294 181.862 106.294C182.819 106.294 183.587 106.583 184.166 107.162C184.745 107.741 185.036 108.581 185.041 109.684ZM181.869 107.292C181.331 107.292 180.882 107.44 180.522 107.736C180.162 108.028 179.932 108.461 179.832 109.035H183.722C183.667 108.465 183.473 108.032 183.141 107.736C182.808 107.44 182.384 107.292 181.869 107.292ZM191.795 102.698H193.107V113.198H191.843L191.809 111.968C191.599 112.391 191.285 112.726 190.865 112.972C190.446 113.219 189.979 113.342 189.464 113.342C189.031 113.342 188.621 113.26 188.233 113.095C187.846 112.927 187.507 112.692 187.215 112.391C186.928 112.091 186.7 111.719 186.531 111.277C186.363 110.83 186.278 110.343 186.278 109.814C186.278 109.117 186.422 108.499 186.709 107.962C187.001 107.419 187.388 107.007 187.871 106.724C188.354 106.437 188.885 106.294 189.464 106.294C189.974 106.294 190.437 106.414 190.852 106.656C191.266 106.893 191.581 107.219 191.795 107.634V102.698ZM189.744 112.22C190.35 112.22 190.858 111.993 191.269 111.537C191.679 111.077 191.884 110.502 191.884 109.814C191.884 109.126 191.676 108.554 191.262 108.098C190.852 107.643 190.346 107.415 189.744 107.415C189.133 107.415 188.621 107.636 188.206 108.078C187.796 108.52 187.591 109.099 187.591 109.814C187.591 110.53 187.796 111.111 188.206 111.557C188.621 111.999 189.133 112.22 189.744 112.22ZM198.795 106.294C199.524 106.294 200.101 106.499 200.524 106.909C200.953 107.315 201.167 107.891 201.167 108.638V113.198H199.848V108.932C199.848 108.408 199.713 108.021 199.444 107.77C199.18 107.515 198.838 107.387 198.419 107.387C197.936 107.387 197.542 107.54 197.236 107.845C196.931 108.146 196.776 108.597 196.771 109.199V113.198H195.459V106.43H196.771V107.264C196.99 106.955 197.273 106.715 197.619 106.547C197.97 106.378 198.362 106.294 198.795 106.294ZM209.391 109.684L209.37 110.033H204.127C204.15 110.748 204.359 111.298 204.756 111.68C205.152 112.063 205.647 112.255 206.239 112.255C206.64 112.255 207 112.152 207.319 111.947C207.638 111.742 207.884 111.455 208.058 111.086L209.247 111.318C209.01 111.942 208.623 112.435 208.085 112.795C207.552 113.15 206.941 113.328 206.253 113.328C205.232 113.328 204.407 113.016 203.778 112.391C203.154 111.762 202.842 110.903 202.842 109.814C202.842 108.73 203.156 107.873 203.785 107.244C204.414 106.61 205.223 106.294 206.212 106.294C207.169 106.294 207.937 106.583 208.516 107.162C209.094 107.741 209.386 108.581 209.391 109.684ZM206.219 107.292C205.681 107.292 205.232 107.44 204.872 107.736C204.512 108.028 204.282 108.461 204.182 109.035H208.071C208.017 108.465 207.823 108.032 207.49 107.736C207.158 107.44 206.734 107.292 206.219 107.292ZM213.362 113.328C212.619 113.328 212.002 113.166 211.51 112.843C211.018 112.519 210.719 112.054 210.614 111.448L211.742 111.127C211.824 111.523 212.007 111.829 212.289 112.043C212.576 112.252 212.932 112.357 213.355 112.357C213.72 112.357 214.028 112.28 214.278 112.125C214.529 111.965 214.65 111.715 214.641 111.373C214.636 111.263 214.618 111.163 214.586 111.072C214.554 110.981 214.497 110.901 214.415 110.833C214.333 110.76 214.256 110.698 214.183 110.648C214.11 110.598 214 110.548 213.854 110.498C213.709 110.443 213.588 110.4 213.492 110.368C213.401 110.336 213.257 110.293 213.062 110.238C212.87 110.183 212.722 110.14 212.617 110.108C212.344 110.026 212.116 109.944 211.934 109.862C211.751 109.78 211.564 109.668 211.373 109.527C211.182 109.386 211.038 109.208 210.942 108.994C210.847 108.78 210.799 108.529 210.799 108.242C210.799 107.604 211.027 107.123 211.482 106.8C211.938 106.471 212.521 106.307 213.232 106.307C213.893 106.307 214.449 106.455 214.9 106.752C215.356 107.043 215.636 107.485 215.741 108.078L214.682 108.338C214.604 107.969 214.433 107.695 214.169 107.517C213.909 107.335 213.599 107.244 213.239 107.244C212.902 107.244 212.613 107.319 212.371 107.469C212.134 107.615 212.016 107.841 212.016 108.146C212.016 108.306 212.054 108.445 212.132 108.563C212.209 108.682 212.326 108.78 212.48 108.857C212.635 108.935 212.793 108.998 212.952 109.049C213.112 109.099 213.308 109.153 213.54 109.213C213.604 109.226 213.652 109.238 213.684 109.247C213.943 109.311 214.16 109.372 214.333 109.431C214.506 109.486 214.7 109.57 214.914 109.684C215.133 109.794 215.308 109.917 215.44 110.053C215.573 110.186 215.684 110.361 215.775 110.58C215.867 110.799 215.912 111.045 215.912 111.318C215.912 111.601 215.867 111.856 215.775 112.084C215.684 112.312 215.559 112.503 215.399 112.658C215.244 112.808 215.058 112.936 214.839 113.041C214.62 113.141 214.388 113.214 214.142 113.26C213.9 113.305 213.64 113.328 213.362 113.328ZM222.666 102.698H223.979V113.198H222.714L222.68 111.968C222.47 112.391 222.156 112.726 221.736 112.972C221.317 113.219 220.85 113.342 220.335 113.342C219.902 113.342 219.492 113.26 219.104 113.095C218.717 112.927 218.378 112.692 218.086 112.391C217.799 112.091 217.571 111.719 217.402 111.277C217.234 110.83 217.149 110.343 217.149 109.814C217.149 109.117 217.293 108.499 217.58 107.962C217.872 107.419 218.259 107.007 218.742 106.724C219.225 106.437 219.756 106.294 220.335 106.294C220.845 106.294 221.308 106.414 221.723 106.656C222.137 106.893 222.452 107.219 222.666 107.634V102.698ZM220.615 112.22C221.221 112.22 221.729 111.993 222.14 111.537C222.55 111.077 222.755 110.502 222.755 109.814C222.755 109.126 222.548 108.554 222.133 108.098C221.723 107.643 221.217 107.415 220.615 107.415C220.005 107.415 219.492 107.636 219.077 108.078C218.667 108.52 218.462 109.099 218.462 109.814C218.462 110.53 218.667 111.111 219.077 111.557C219.492 111.999 220.005 112.22 220.615 112.22ZM227.902 113.328C227.515 113.328 227.169 113.266 226.863 113.143C226.562 113.02 226.314 112.817 226.118 112.535C225.927 112.248 225.831 111.895 225.831 111.475C225.831 111.134 225.893 110.837 226.016 110.587C226.143 110.336 226.33 110.131 226.576 109.971C226.827 109.812 227.093 109.684 227.376 109.589C227.663 109.493 228.005 109.411 228.401 109.343L229.468 109.158C229.878 109.08 230.083 108.873 230.083 108.536C230.083 108.103 229.946 107.786 229.673 107.586C229.399 107.381 229.058 107.278 228.647 107.278C228.228 107.278 227.882 107.378 227.608 107.579C227.335 107.779 227.173 108.092 227.123 108.515L225.94 108.276C226.05 107.62 226.339 107.128 226.809 106.8C227.283 106.471 227.916 106.307 228.709 106.307C228.996 106.307 229.263 106.33 229.509 106.376C229.755 106.421 229.992 106.501 230.22 106.615C230.452 106.729 230.648 106.875 230.808 107.052C230.972 107.226 231.102 107.451 231.197 107.729C231.298 108.003 231.348 108.315 231.348 108.666V111.407C231.348 111.744 231.398 111.974 231.498 112.097C231.603 112.216 231.778 112.275 232.024 112.275H232.127V113.198H231.491C230.748 113.198 230.311 112.895 230.179 112.289H230.117C229.862 112.644 229.538 112.906 229.146 113.075C228.759 113.244 228.344 113.328 227.902 113.328ZM228.203 112.282C228.786 112.282 229.26 112.075 229.625 111.66C229.994 111.241 230.179 110.678 230.179 109.971L228.408 110.334C227.971 110.407 227.645 110.525 227.431 110.689C227.216 110.849 227.109 111.077 227.109 111.373C227.109 111.678 227.21 111.906 227.41 112.056C227.615 112.207 227.88 112.282 228.203 112.282ZM237.835 106.43H239.216L235.244 116.384H233.891L235.285 113.027L232.626 106.43H234.075L235.941 111.557L237.835 106.43Z" fill="#22215B" fill-opacity="0.6"/>
<path d="M36.6328 46.3279C35.7168 46.3279 34.8942 46.1319 34.165 45.74C33.4404 45.3435 32.8639 44.767 32.4355 44.0105C32.0117 43.2494 31.7998 42.3653 31.7998 41.3582C31.7998 40.6062 31.9229 39.9181 32.1689 39.2937C32.415 38.6648 32.7546 38.1407 33.1875 37.7214C33.6204 37.3022 34.1309 36.9786 34.7188 36.7507C35.3112 36.5183 35.9492 36.4021 36.6328 36.4021C37.6126 36.4021 38.4854 36.6345 39.251 37.0994C40.0166 37.5597 40.584 38.2045 40.9531 39.0339L39.6953 39.533C39.4173 38.9451 39.0072 38.4916 38.4648 38.1726C37.9271 37.849 37.3164 37.6873 36.6328 37.6873C36.1452 37.6873 35.6895 37.7716 35.2656 37.9402C34.8464 38.1042 34.4795 38.3389 34.165 38.6443C33.8506 38.9496 33.6022 39.337 33.4199 39.8064C33.2422 40.2712 33.1533 40.7885 33.1533 41.3582C33.1533 41.9324 33.2422 42.4542 33.4199 42.9236C33.6022 43.3884 33.8506 43.7758 34.165 44.0857C34.4795 44.391 34.8464 44.628 35.2656 44.7966C35.6895 44.9607 36.1452 45.0427 36.6328 45.0427C37.3164 45.0427 37.9271 44.8832 38.4648 44.5642C39.0072 44.2406 39.4173 43.7849 39.6953 43.197L40.9531 43.7029C40.5794 44.5278 40.0098 45.1726 39.2441 45.6375C38.4831 46.0977 37.6126 46.3279 36.6328 46.3279ZM45.5947 46.3279C44.5876 46.3279 43.7581 46.0089 43.1064 45.3708C42.4548 44.7283 42.1289 43.8738 42.1289 42.8074C42.1289 41.741 42.4525 40.8888 43.0996 40.2507C43.7513 39.6127 44.583 39.2937 45.5947 39.2937C46.6064 39.2937 47.4359 39.6127 48.083 40.2507C48.7301 40.8888 49.0537 41.741 49.0537 42.8074C49.0537 43.8738 48.7301 44.7283 48.083 45.3708C47.4359 46.0089 46.6064 46.3279 45.5947 46.3279ZM45.5811 45.2478C46.21 45.2478 46.7295 45.0245 47.1396 44.5779C47.5498 44.1267 47.7549 43.5365 47.7549 42.8074C47.7549 42.0782 47.5498 41.4903 47.1396 41.0437C46.7295 40.5971 46.21 40.3738 45.5811 40.3738C44.9613 40.3738 44.4486 40.5971 44.043 41.0437C43.6374 41.4903 43.4346 42.0782 43.4346 42.8074C43.4346 43.5365 43.6374 44.1267 44.043 44.5779C44.4486 45.0245 44.9613 45.2478 45.5811 45.2478ZM50.8516 46.198V35.698H52.1709V46.198H50.8516ZM57.4346 46.3279C56.4274 46.3279 55.598 46.0089 54.9463 45.3708C54.2946 44.7283 53.9688 43.8738 53.9688 42.8074C53.9688 41.741 54.2923 40.8888 54.9395 40.2507C55.5911 39.6127 56.4229 39.2937 57.4346 39.2937C58.4463 39.2937 59.2757 39.6127 59.9229 40.2507C60.57 40.8888 60.8936 41.741 60.8936 42.8074C60.8936 43.8738 60.57 44.7283 59.9229 45.3708C59.2757 46.0089 58.4463 46.3279 57.4346 46.3279ZM57.4209 45.2478C58.0498 45.2478 58.5693 45.0245 58.9795 44.5779C59.3896 44.1267 59.5947 43.5365 59.5947 42.8074C59.5947 42.0782 59.3896 41.4903 58.9795 41.0437C58.5693 40.5971 58.0498 40.3738 57.4209 40.3738C56.8011 40.3738 56.2884 40.5971 55.8828 41.0437C55.4772 41.4903 55.2744 42.0782 55.2744 42.8074C55.2744 43.5365 55.4772 44.1267 55.8828 44.5779C56.2884 45.0245 56.8011 45.2478 57.4209 45.2478ZM69.8008 39.2937C70.4661 39.2937 70.9993 39.4851 71.4004 39.8679C71.806 40.2462 72.0088 40.7817 72.0088 41.4744V46.198H70.6963V41.823C70.6963 41.349 70.5755 40.9913 70.334 40.7498C70.097 40.5082 69.7962 40.3875 69.4316 40.3875C69.0124 40.3875 68.6729 40.5287 68.4131 40.8113C68.1533 41.0893 68.0234 41.5108 68.0234 42.0759V46.198H66.6904V41.8708C66.6904 41.3832 66.5697 41.0141 66.3281 40.7634C66.0866 40.5128 65.779 40.3875 65.4053 40.3875C64.9906 40.3875 64.651 40.531 64.3867 40.8181C64.127 41.1052 63.9971 41.5404 63.9971 42.1238V46.198H62.6914V39.4304H63.9971V40.2917C64.4209 39.6264 65.0452 39.2937 65.8701 39.2937C66.3167 39.2937 66.7087 39.3871 67.0459 39.574C67.3831 39.7608 67.6361 40.032 67.8047 40.3875C68.0143 40.032 68.29 39.7608 68.6318 39.574C68.9736 39.3871 69.3633 39.2937 69.8008 39.2937ZM77.8945 39.2937C78.4733 39.2937 79.002 39.4373 79.4805 39.7244C79.9635 40.0069 80.3486 40.4194 80.6357 40.9617C80.9229 41.4994 81.0664 42.1169 81.0664 42.8142C81.0664 43.8669 80.7611 44.7192 80.1504 45.3708C79.5443 46.018 78.7923 46.3416 77.8945 46.3416C77.3704 46.3416 76.8988 46.2185 76.4795 45.9724C76.0648 45.7263 75.7526 45.3914 75.543 44.9675L75.5088 46.198H74.2441V35.698H75.5498L75.5566 40.6335C75.7708 40.2188 76.0853 39.893 76.5 39.656C76.9147 39.4145 77.3796 39.2937 77.8945 39.2937ZM76.0762 44.5369C76.4909 44.9926 77.0013 45.2205 77.6074 45.2205C78.2135 45.2205 78.7217 44.9994 79.1318 44.5574C79.5465 44.1108 79.7539 43.5297 79.7539 42.8142C79.7539 42.0987 79.5465 41.5199 79.1318 41.0779C78.7217 40.6358 78.2135 40.4148 77.6074 40.4148C77.0059 40.4148 76.4977 40.6449 76.083 41.1052C75.6683 41.561 75.4609 42.1306 75.4609 42.8142C75.4609 43.5024 75.666 44.0766 76.0762 44.5369ZM85.7764 46.3279C84.7692 46.3279 83.9398 46.0089 83.2881 45.3708C82.6364 44.7283 82.3105 43.8738 82.3105 42.8074C82.3105 41.741 82.6341 40.8888 83.2812 40.2507C83.9329 39.6127 84.7646 39.2937 85.7764 39.2937C86.7881 39.2937 87.6175 39.6127 88.2646 40.2507C88.9118 40.8888 89.2354 41.741 89.2354 42.8074C89.2354 43.8738 88.9118 44.7283 88.2646 45.3708C87.6175 46.0089 86.7881 46.3279 85.7764 46.3279ZM85.7627 45.2478C86.3916 45.2478 86.9111 45.0245 87.3213 44.5779C87.7314 44.1267 87.9365 43.5365 87.9365 42.8074C87.9365 42.0782 87.7314 41.4903 87.3213 41.0437C86.9111 40.5971 86.3916 40.3738 85.7627 40.3738C85.1429 40.3738 84.6302 40.5971 84.2246 41.0437C83.819 41.4903 83.6162 42.0782 83.6162 42.8074C83.6162 43.5365 83.819 44.1267 84.2246 44.5779C84.6302 45.0245 85.1429 45.2478 85.7627 45.2478ZM91.334 48.6726H90.377L91.2178 44.3933H92.585L91.334 48.6726ZM101.766 46.3279C100.749 46.3279 99.8994 46.0977 99.2158 45.6375C98.5322 45.1772 98.1084 44.5391 97.9443 43.7234L99.332 43.3953C99.4414 43.9513 99.7194 44.3865 100.166 44.7009C100.613 45.0154 101.162 45.1726 101.813 45.1726C102.082 45.1726 102.333 45.1453 102.565 45.0906C102.798 45.0313 103.01 44.9425 103.201 44.824C103.397 44.7009 103.55 44.5346 103.659 44.325C103.769 44.1108 103.821 43.8647 103.816 43.5867C103.812 43.3679 103.755 43.172 103.646 42.9988C103.541 42.821 103.436 42.682 103.331 42.5818C103.226 42.477 103.026 42.3653 102.729 42.2468C102.438 42.1238 102.228 42.044 102.101 42.0076C101.978 41.9711 101.72 41.8982 101.328 41.7888C101.287 41.7751 101.257 41.766 101.239 41.7615C100.979 41.6886 100.765 41.627 100.597 41.5769C100.428 41.5268 100.228 41.4584 99.9951 41.3718C99.7627 41.2807 99.5713 41.1918 99.4209 41.1052C99.2751 41.0141 99.1201 40.9024 98.9561 40.7703C98.792 40.6335 98.6621 40.49 98.5664 40.3396C98.4753 40.1847 98.3978 40.0024 98.334 39.7927C98.2747 39.5785 98.2451 39.3484 98.2451 39.1023C98.2451 38.7514 98.2998 38.4278 98.4092 38.1316C98.5231 37.8354 98.6781 37.5824 98.874 37.3728C99.0745 37.1632 99.3115 36.9854 99.585 36.8396C99.8584 36.6892 100.155 36.5798 100.474 36.5115C100.793 36.4386 101.13 36.4021 101.485 36.4021C101.923 36.4021 102.333 36.45 102.716 36.5457C103.103 36.6368 103.459 36.7781 103.782 36.9695C104.106 37.1563 104.382 37.4047 104.609 37.7146C104.837 38.0199 104.994 38.3754 105.081 38.781L103.762 39.116C103.648 38.601 103.39 38.2136 102.989 37.9539C102.593 37.6941 102.112 37.5642 101.547 37.5642C101.205 37.5642 100.893 37.6121 100.61 37.7078C100.332 37.8035 100.095 37.9698 99.8994 38.2068C99.708 38.4438 99.6123 38.7377 99.6123 39.0886C99.6123 39.2299 99.6351 39.3598 99.6807 39.4783C99.7262 39.5968 99.7809 39.6993 99.8447 39.7859C99.9131 39.8725 100.011 39.9591 100.139 40.0457C100.271 40.1277 100.387 40.196 100.487 40.2507C100.592 40.3009 100.74 40.3578 100.932 40.4216C101.123 40.4854 101.278 40.5356 101.396 40.572C101.515 40.6039 101.688 40.6495 101.916 40.7087C102.331 40.8227 102.647 40.9138 102.866 40.9822C103.09 41.0505 103.374 41.1645 103.721 41.324C104.072 41.4835 104.336 41.6521 104.514 41.8298C104.696 42.0076 104.858 42.2445 104.999 42.5408C105.145 42.837 105.218 43.172 105.218 43.5457C105.218 43.9239 105.156 44.2703 105.033 44.5847C104.91 44.8946 104.742 45.1567 104.527 45.3708C104.313 45.585 104.058 45.7651 103.762 45.9109C103.47 46.0567 103.156 46.1615 102.818 46.2253C102.486 46.2937 102.135 46.3279 101.766 46.3279ZM108.438 40.6062C108.602 40.2416 108.882 39.9431 109.278 39.7107C109.675 39.4783 110.112 39.3598 110.591 39.3552V40.572C109.894 40.572 109.367 40.7338 109.012 41.0574C108.656 41.3809 108.479 41.9073 108.479 42.6365V46.198H107.166V39.4304H108.438V40.6062ZM112.621 37.9333C112.389 37.9333 112.186 37.849 112.013 37.6804C111.844 37.5118 111.76 37.3113 111.76 37.0789C111.76 36.8464 111.844 36.6482 112.013 36.4841C112.186 36.3155 112.389 36.2312 112.621 36.2312C112.854 36.2312 113.052 36.3155 113.216 36.4841C113.384 36.6482 113.469 36.8464 113.469 37.0789C113.469 37.3158 113.384 37.5186 113.216 37.6873C113.047 37.8513 112.849 37.9333 112.621 37.9333ZM111.951 46.198V39.4304H113.271V46.198H111.951ZM120.92 44.9675H124.222V46.198H119.56V36.532H120.92V44.9675ZM127.346 46.3279C126.958 46.3279 126.612 46.2664 126.307 46.1433C126.006 46.0203 125.757 45.8175 125.562 45.5349C125.37 45.2478 125.274 44.8946 125.274 44.4753C125.274 44.1335 125.336 43.8373 125.459 43.5867C125.587 43.336 125.773 43.1309 126.02 42.9714C126.27 42.8119 126.537 42.6843 126.819 42.5886C127.106 42.4929 127.448 42.4109 127.845 42.3425L128.911 42.158C129.321 42.0805 129.526 41.8731 129.526 41.5359C129.526 41.1029 129.39 40.7862 129.116 40.5857C128.843 40.3806 128.501 40.2781 128.091 40.2781C127.672 40.2781 127.325 40.3783 127.052 40.5789C126.778 40.7794 126.617 41.0916 126.566 41.5154L125.384 41.2761C125.493 40.6199 125.783 40.1277 126.252 39.7996C126.726 39.4714 127.359 39.3074 128.152 39.3074C128.439 39.3074 128.706 39.3302 128.952 39.3757C129.198 39.4213 129.435 39.5011 129.663 39.615C129.896 39.7289 130.091 39.8748 130.251 40.0525C130.415 40.2257 130.545 40.4513 130.641 40.7292C130.741 41.0027 130.791 41.3149 130.791 41.6658V44.407C130.791 44.7442 130.841 44.9744 130.941 45.0974C131.046 45.2159 131.222 45.2751 131.468 45.2751H131.57V46.198H130.935C130.192 46.198 129.754 45.8949 129.622 45.2888H129.561C129.305 45.6443 128.982 45.9063 128.59 46.075C128.202 46.2436 127.788 46.3279 127.346 46.3279ZM127.646 45.282C128.23 45.282 128.704 45.0746 129.068 44.6599C129.438 44.2406 129.622 43.6778 129.622 42.9714L127.852 43.3337C127.414 43.4067 127.088 43.5251 126.874 43.6892C126.66 43.8487 126.553 44.0766 126.553 44.3728C126.553 44.6781 126.653 44.906 126.854 45.0564C127.059 45.2068 127.323 45.282 127.646 45.282ZM136.533 39.2937C137.262 39.2937 137.839 39.4988 138.263 39.9089C138.691 40.3145 138.905 40.891 138.905 41.6384V46.198H137.586V41.9324C137.586 41.4083 137.451 41.0209 137.183 40.7703C136.918 40.5151 136.576 40.3875 136.157 40.3875C135.674 40.3875 135.28 40.5401 134.975 40.8455C134.669 41.1462 134.514 41.5974 134.51 42.199V46.198H133.197V39.4304H134.51V40.2644C134.729 39.9545 135.011 39.7153 135.357 39.5466C135.708 39.378 136.1 39.2937 136.533 39.2937ZM145.461 46.198L142.973 43.115H142.446V46.198H141.127V35.698H142.446V42.1375H142.932L145.242 39.4304H146.78L144.066 42.5271L147.122 46.198H145.461ZM149.699 46.3279C149.312 46.3279 148.965 46.2664 148.66 46.1433C148.359 46.0203 148.111 45.8175 147.915 45.5349C147.724 45.2478 147.628 44.8946 147.628 44.4753C147.628 44.1335 147.689 43.8373 147.812 43.5867C147.94 43.336 148.127 43.1309 148.373 42.9714C148.624 42.8119 148.89 42.6843 149.173 42.5886C149.46 42.4929 149.802 42.4109 150.198 42.3425L151.265 42.158C151.675 42.0805 151.88 41.8731 151.88 41.5359C151.88 41.1029 151.743 40.7862 151.47 40.5857C151.196 40.3806 150.854 40.2781 150.444 40.2781C150.025 40.2781 149.679 40.3783 149.405 40.5789C149.132 40.7794 148.97 41.0916 148.92 41.5154L147.737 41.2761C147.847 40.6199 148.136 40.1277 148.605 39.7996C149.079 39.4714 149.713 39.3074 150.506 39.3074C150.793 39.3074 151.06 39.3302 151.306 39.3757C151.552 39.4213 151.789 39.5011 152.017 39.615C152.249 39.7289 152.445 39.8748 152.604 40.0525C152.769 40.2257 152.898 40.4513 152.994 40.7292C153.094 41.0027 153.145 41.3149 153.145 41.6658V44.407C153.145 44.7442 153.195 44.9744 153.295 45.0974C153.4 45.2159 153.575 45.2751 153.821 45.2751H153.924V46.198H153.288C152.545 46.198 152.108 45.8949 151.976 45.2888H151.914C151.659 45.6443 151.335 45.9063 150.943 46.075C150.556 46.2436 150.141 46.3279 149.699 46.3279ZM150 45.282C150.583 45.282 151.057 45.0746 151.422 44.6599C151.791 44.2406 151.976 43.6778 151.976 42.9714L150.205 43.3337C149.768 43.4067 149.442 43.5251 149.228 43.6892C149.013 43.8487 148.906 44.0766 148.906 44.3728C148.906 44.6781 149.007 44.906 149.207 45.0564C149.412 45.2068 149.676 45.282 150 45.282Z" fill="#22215B" fill-opacity="0.6"/>
<path d="M393.256 68.134C395.296 68.134 396.232 67.222 396.256 65.158H398.704V82.198H395.56V70.534H391.936V68.134H393.256ZM409.018 82.582C404.89 82.582 402.154 80.638 402.154 77.518C402.154 75.358 403.474 73.702 405.754 72.958C403.954 72.334 402.97 71.158 402.97 69.454C402.97 66.718 405.394 64.774 409.018 64.774C412.666 64.774 415.066 66.718 415.066 69.454C415.066 71.158 414.058 72.334 412.282 72.958C414.562 73.726 415.882 75.382 415.882 77.518C415.882 80.638 413.146 82.582 409.018 82.582ZM405.418 77.11C405.418 78.766 406.834 79.822 409.018 79.822C411.202 79.822 412.618 78.766 412.618 77.11C412.618 75.43 411.202 74.35 409.018 74.35C406.834 74.35 405.418 75.43 405.418 77.11ZM406.21 69.718C406.21 71.038 407.29 71.902 409.018 71.902C410.746 71.902 411.826 71.038 411.826 69.718C411.826 68.374 410.746 67.534 409.018 67.534C407.29 67.534 406.21 68.374 406.21 69.718ZM421.701 73.318C419.541 73.318 417.789 71.566 417.789 69.406C417.789 67.27 419.541 65.494 421.701 65.494C423.837 65.494 425.613 67.27 425.613 69.406C425.613 71.566 423.837 73.318 421.701 73.318ZM420.021 69.406C420.021 70.342 420.765 71.11 421.701 71.11C422.613 71.11 423.357 70.342 423.357 69.406C423.357 68.494 422.613 67.726 421.701 67.726C420.765 67.726 420.021 68.494 420.021 69.406ZM448.617 76.246C447.945 80.182 445.401 82.582 441.369 82.582C436.377 82.582 433.329 78.694 433.329 73.702C433.329 68.686 436.353 64.774 441.369 64.774C445.209 64.774 447.777 67.054 448.521 70.798L445.233 70.966C444.777 68.758 443.361 67.534 441.321 67.534C438.033 67.534 436.569 70.27 436.569 73.702C436.569 77.11 438.057 79.822 441.321 79.822C443.457 79.822 444.897 78.478 445.305 76.078L448.617 76.246Z" fill="#2C3774"/>
<path d="M378.776 73.5698C377.807 72.3821 376.578 71.6181 375.09 71.2773C375.563 70.5613 375.799 69.7772 375.799 68.9251C375.799 67.7205 375.366 66.6922 374.501 65.8398C373.636 64.9878 372.592 64.5615 371.369 64.5615C370.261 64.5615 369.303 64.9138 368.496 65.6184C367.816 64.0048 366.733 62.698 365.251 61.698C363.768 60.6982 362.115 60.198 360.292 60.198C357.846 60.198 355.758 61.0505 354.027 62.755C352.296 64.4592 351.431 66.5162 351.431 68.9253C351.431 69.0958 351.442 69.3399 351.465 69.6581C350.127 70.2718 349.048 71.2007 348.229 72.4453C347.41 73.6893 347 75.0617 347 76.5617C347 78.6639 347.759 80.4622 349.276 81.9563C350.793 83.4508 352.619 84.198 354.754 84.198H373.585C375.419 84.198 376.985 83.5583 378.284 82.2803C379.582 81.002 380.231 79.4595 380.231 77.6525C380.231 76.1186 379.746 74.7571 378.776 73.5698Z" fill="url(#paint0_linear_28_739)"/>
<path d="M378.776 73.5698C377.807 72.3821 376.578 71.6181 375.09 71.2773C375.563 70.5613 375.799 69.7772 375.799 68.9251C375.799 67.7205 375.366 66.6922 374.501 65.8398C373.636 64.9878 372.592 64.5615 371.369 64.5615C370.261 64.5615 369.303 64.9138 368.496 65.6184C367.816 64.0048 366.733 62.698 365.251 61.698C363.768 60.6982 362.115 60.198 360.292 60.198C357.846 60.198 355.758 61.0505 354.027 62.755C352.296 64.4592 351.431 66.5162 351.431 68.9253C351.431 69.0958 351.442 69.3399 351.465 69.6581C350.127 70.2718 349.048 71.2007 348.229 72.4453C347.41 73.6893 347 75.0617 347 76.5617C347 78.6639 347.759 80.4622 349.276 81.9563C350.793 83.4508 352.619 84.198 354.754 84.198H373.585C375.419 84.198 376.985 83.5583 378.284 82.2803C379.582 81.002 380.231 79.4595 380.231 77.6525C380.231 76.1186 379.746 74.7571 378.776 73.5698Z" fill="url(#paint1_linear_28_739)"/>
<path d="M378.776 73.5698C377.807 72.3821 376.578 71.6181 375.09 71.2773C375.563 70.5613 375.799 69.7772 375.799 68.9251C375.799 67.7205 375.366 66.6922 374.501 65.8398C373.636 64.9878 372.592 64.5615 371.369 64.5615C370.261 64.5615 369.303 64.9138 368.496 65.6184C367.816 64.0048 366.733 62.698 365.251 61.698C363.768 60.6982 362.115 60.198 360.292 60.198C357.846 60.198 355.758 61.0505 354.027 62.755C352.296 64.4592 351.431 66.5162 351.431 68.9253C351.431 69.0958 351.442 69.3399 351.465 69.6581C350.127 70.2718 349.048 71.2007 348.229 72.4453C347.41 73.6893 347 75.0617 347 76.5617C347 78.6639 347.759 80.4622 349.276 81.9563C350.793 83.4508 352.619 84.198 354.754 84.198H373.585C375.419 84.198 376.985 83.5583 378.284 82.2803C379.582 81.002 380.231 79.4595 380.231 77.6525C380.231 76.1186 379.746 74.7571 378.776 73.5698Z" fill="url(#paint2_linear_28_739)"/>
<path d="M380.862 79.2268C380.104 78.3361 379.142 77.763 377.978 77.5075C378.348 76.9705 378.533 76.3824 378.533 75.7433C378.533 74.8399 378.194 74.0686 377.517 73.4294C376.84 72.7903 376.023 72.4707 375.066 72.4707C374.2 72.4707 373.45 72.7349 372.819 73.2633C372.286 72.0531 371.44 71.073 370.28 70.323C369.12 69.5732 367.826 69.198 366.4 69.198C364.486 69.198 362.852 69.8374 361.498 71.1158C360.144 72.3939 359.467 73.9366 359.467 75.7434C359.467 75.8713 359.476 76.0544 359.494 76.2931C358.447 76.7533 357.602 77.45 356.961 78.3835C356.321 79.3165 356 80.3458 356 81.4708C356 83.0474 356.594 84.3962 357.781 85.5167C358.968 86.6376 360.396 87.198 362.067 87.198H376.8C378.235 87.198 379.461 86.7182 380.476 85.7597C381.492 84.801 382 83.6441 382 82.2889C382 81.1384 381.621 80.1173 380.862 79.2268Z" fill="url(#paint3_linear_28_739)"/>
<defs>
<filter id="filter0_dd_28_739" x="0" y="0.197998" width="526" height="207" filterUnits="userSpaceOnUse" color-interpolation-filters="sRGB">
<feFlood flood-opacity="0" result="BackgroundImageFix"/>
<feColorMatrix in="SourceAlpha" type="matrix" values="0 0 0 0 0 0 0 0 0 0 0 0 0 0 0 0 0 0 127 0" result="hardAlpha"/>
<feMorphology radius="1" operator="dilate" in="SourceAlpha" result="effect1_dropShadow_28_739"/>
<feOffset dx="26" dy="36"/>
<feGaussianBlur stdDeviation="11"/>
<feComposite in2="hardAlpha" operator="out"/>
<feColorMatrix type="matrix" values="0 0 0 0 0.305486 0 0 0 0 0.289097 0 0 0 0 0.383333 0 0 0 0.08 0"/>
<feBlend mode="normal" in2="BackgroundImageFix" result="effect1_dropShadow_28_739"/>
<feColorMatrix in="SourceAlpha" type="matrix" values="0 0 0 0 0 0 0 0 0 0 0 0 0 0 0 0 0 0 127 0" result="hardAlpha"/>
<feOffset dx="1" dy="1"/>
<feGaussianBlur stdDeviation="1"/>
<feComposite in2="hardAlpha" operator="out"/>
<feColorMatrix type="matrix" values="0 0 0 0 0.438414 0 0 0 0 0.418924 0 0 0 0 0.529167 0 0 0 0.19 0"/>
<feBlend mode="normal" in2="effect1_dropShadow_28_739" result="effect2_dropShadow_28_739"/>
<feBlend mode="normal" in="SourceGraphic" in2="effect2_dropShadow_28_739" result="shape"/>
</filter>
<linearGradient id="paint0_linear_28_739" x1="374.765" y1="80.598" x2="357.418" y2="53.5231" gradientUnits="userSpaceOnUse">
<stop stop-color="#FFC600" stop-opacity="0.56"/>
<stop offset="1" stop-color="#FF7F00"/>
</linearGradient>
<linearGradient id="paint1_linear_28_739" x1="374.765" y1="80.598" x2="357.418" y2="53.5231" gradientUnits="userSpaceOnUse">
<stop stop-color="white" stop-opacity="0.56"/>
<stop offset="1" stop-color="#FF7F00"/>
</linearGradient>
<linearGradient id="paint2_linear_28_739" x1="374.765" y1="80.598" x2="357.418" y2="53.5231" gradientUnits="userSpaceOnUse">
<stop stop-color="#FFC600" stop-opacity="0.56"/>
<stop offset="1" stop-color="#FF7F00"/>
</linearGradient>
<linearGradient id="paint3_linear_28_739" x1="377.724" y1="84.498" x2="364.951" y2="63.7008" gradientUnits="userSpaceOnUse">
<stop stop-color="#ECF7FF"/>
<stop offset="1" stop-color="#FBFDFF" stop-opacity="0.56"/>
</linearGradient>
</defs>
</svg>
