<svg width="40" height="37" viewBox="0 0 40 37" fill="none" xmlns="http://www.w3.org/2000/svg">
<mask id="mask0_198_3049" style="mask-type:luminance" maskUnits="userSpaceOnUse" x="0" y="0" width="40" height="37">
<path d="M40 0H0V36.9308H40V0Z" fill="white"/>
</mask>
<g mask="url(#mask0_198_3049)">
<mask id="mask1_198_3049" style="mask-type:alpha" maskUnits="userSpaceOnUse" x="0" y="0" width="40" height="37">
<path d="M40 18.4654C40 28.6636 31.0458 36.9308 20 36.9308C8.95431 36.9308 0 28.6636 0 18.4654C0 8.26723 8.95431 0 20 0C31.0458 0 40 8.26723 40 18.4654ZM9.09273 18.4654C9.09273 24.0271 13.9761 28.5357 20 28.5357C26.0239 28.5357 30.9072 24.0271 30.9072 18.4654C30.9072 12.9037 26.0239 8.39504 20 8.39504C13.9761 8.39504 9.09273 12.9037 9.09273 18.4654Z" fill="#D9D9D9"/>
</mask>
<g mask="url(#mask1_198_3049)">
<mask id="mask2_198_3049" style="mask-type:luminance" maskUnits="userSpaceOnUse" x="-1" y="-1" width="41" height="38">
<path d="M40 -0.161133H-0.174683V36.9309H40V-0.161133Z" fill="white"/>
</mask>
<g mask="url(#mask2_198_3049)">
<path d="M21.1899 28.355H18.4031V36.9311H21.1899V28.355Z" fill="#8000FF"/>
<path d="M15.7076 27.7113L13.2943 26.4248L8.64984 33.8521L11.0632 35.1385L15.7076 27.7113Z" fill="#8000FF"/>
<path d="M11.1209 24.3653L9.72755 22.1372L1.68311 26.4252L3.07644 28.6535L11.1209 24.3653Z" fill="#8000FF"/>
<path d="M9.11426 19.7785V17.2056H-0.174683V19.7785H9.11426Z" fill="#8000FF"/>
<path d="M40 19.7785V17.2056H18.4031V19.7785H40Z" fill="#8000FF"/>
<path d="M36.6655 28.8673L38.0588 26.6392L30.0143 22.3511L28.6209 24.5793L36.6655 28.8673Z" fill="#8000FF"/>
<path d="M28.8534 35.1385L31.2667 33.8521L26.6223 26.4248L24.2089 27.7113L28.8534 35.1385Z" fill="#8000FF"/>
<path d="M38.0588 10.214L36.6655 7.98584L28.6211 12.2739L30.0145 14.5021L38.0588 10.214Z" fill="#8000FF"/>
<path d="M9.95986 14.5021L11.3532 12.2739L3.30873 7.98584L1.91541 10.214L9.95986 14.5021Z" fill="#8000FF"/>
<path d="M13.2944 10.2673L15.7078 8.98091L11.0633 1.55371L8.64996 2.84014L13.2944 10.2673Z" fill="#8000FF"/>
<path d="M21.1899 -0.161133H18.4031V8.41506H21.1899V-0.161133Z" fill="#8000FF"/>
<path d="M31.2665 3.0545L28.8532 1.76807L24.2087 9.19528L26.6221 10.4817L31.2665 3.0545Z" fill="#8000FF"/>
</g>
</g>
<path d="M40 19.7785V17.2056H18.4031V19.7785H40Z" fill="#8000FF"/>
</g>
</svg>
