<svg width="432" height="201" viewBox="0 0 432 201" fill="none" xmlns="http://www.w3.org/2000/svg">
<path fill-rule="evenodd" clip-rule="evenodd" d="M18.7905 166.689V166.1H427.616V166.69L18.7905 166.689ZM19.217 131.818V131.229H428.043V131.818H19.217ZM19.217 97.5182V96.9236H428.043V97.5182H19.217ZM18.7905 61.4857V60.8968H427.616V61.4857H18.7905ZM19.217 26.615V26.0261H428.043V26.615H19.217ZM19.217 -7.68432V-8.27328H428.043V-7.68432H19.217ZM18.7905 -43.1275V-43.7164H427.616V-43.1275H18.7905Z" fill="#F1F4F9"/>
<path d="M0.554016 -0.872597L1.21686 -1.5587C1.66205 -1.12131 2.25563 -0.881173 2.99762 -0.881173C3.82864 -0.881173 4.35298 -1.32714 4.35298 -1.8846C4.35298 -2.5021 3.83854 -2.90518 3.0273 -2.90518C2.46339 -2.90518 1.99841 -2.75081 1.5829 -2.40776L0.761772 -2.61359V-5.81255H5.08507V-4.92919H1.91927V-3.27397C2.23585 -3.54841 2.77997 -3.77139 3.41313 -3.77139C4.52116 -3.77139 5.52037 -3.09386 5.52037 -1.92748C5.52037 -0.735377 4.48159 0.0107622 3.00751 0.0107622C1.8698 0.0107622 1.08825 -0.323713 0.554016 -0.872597ZM6.33763 -2.94807C6.33763 -4.38889 7.12906 -5.89832 8.97907 -5.89832C10.8291 -5.89832 11.6205 -4.38889 11.6205 -2.94807C11.6205 -1.50725 10.8291 0.0107622 8.97907 0.0107622C7.12906 0.0107622 6.33763 -1.50725 6.33763 -2.94807ZM10.4433 -2.94807C10.4433 -4.03726 10.0574 -5.00638 8.97907 -5.00638C7.90072 -5.00638 7.51489 -4.03726 7.51489 -2.94807C7.51489 -1.85888 7.90072 -0.881173 8.97907 -0.881173C10.0574 -0.881173 10.4433 -1.85888 10.4433 -2.94807ZM15.8668 -0.092154L14.4026 -1.79884L13.7398 -1.20707V-0.092154H12.701V-5.81255H13.7398V-2.23623L15.847 -4.23451H17.1331L15.1446 -2.3563L17.1727 -0.092154H15.8668Z" fill="#809FB8"/>
<path d="M3.42302 34.7848V33.4898H0.277008V32.6836L2.98773 29.0644H4.58052V32.6064H5.46101V33.4898H4.58052V34.7848H3.42302ZM3.42302 29.9649L1.41472 32.6064H3.42302V29.9649ZM6.14441 31.9289C6.14441 30.4881 6.93588 28.9786 8.78589 28.9786C10.6359 28.9786 11.4274 30.4881 11.4274 31.9289C11.4274 33.3697 10.6359 34.8877 8.78589 34.8877C6.93588 34.8877 6.14441 33.3697 6.14441 31.9289ZM10.2501 31.9289C10.2501 30.8397 9.86424 29.8706 8.78589 29.8706C7.70754 29.8706 7.32171 30.8397 7.32171 31.9289C7.32171 33.0181 7.70754 33.9958 8.78589 33.9958C9.86424 33.9958 10.2501 33.0181 10.2501 31.9289ZM15.6736 34.7848L14.2094 33.0781L13.5465 33.6699V34.7848H12.5078V29.0644H13.5465V32.6407L15.6538 30.6424H16.9399L14.9514 32.5206L16.9794 34.7848H15.6736Z" fill="#809FB8"/>
<path d="M0.237434 68.8385L0.860702 68.1782C1.28611 68.607 1.98852 68.8729 2.69093 68.8729C3.56153 68.8729 4.06608 68.5298 4.06608 67.9981C4.06608 67.432 3.54174 67.1919 2.60189 67.1919C2.32488 67.1919 1.93905 67.1919 1.84012 67.2005V66.3C1.95884 66.3085 2.34467 66.3085 2.60189 66.3085C3.37356 66.3085 3.95725 66.077 3.95725 65.5538C3.95725 65.0221 3.36366 64.7476 2.62168 64.7476C1.94895 64.7476 1.39493 64.9706 0.92006 65.3823L0.326473 64.7562C0.831022 64.2416 1.63237 63.8557 2.7305 63.8557C4.15511 63.8557 5.11475 64.4389 5.11475 65.3994C5.11475 66.1627 4.36287 66.6087 3.68024 66.7116C4.3233 66.7631 5.21368 67.2176 5.21368 68.101C5.21368 69.0701 4.25405 69.7648 2.7305 69.7648C1.55322 69.7648 0.682625 69.3531 0.237434 68.8385ZM6.08644 66.806C6.08644 65.3651 6.8779 63.8557 8.72792 63.8557C10.5779 63.8557 11.3694 65.3651 11.3694 66.806C11.3694 68.2468 10.5779 69.7648 8.72792 69.7648C6.8779 69.7648 6.08644 68.2468 6.08644 66.806ZM10.1921 66.806C10.1921 65.7168 9.80627 64.7476 8.72792 64.7476C7.64957 64.7476 7.26373 65.7168 7.26373 66.806C7.26373 67.8952 7.64957 68.8729 8.72792 68.8729C9.80627 68.8729 10.1921 67.8952 10.1921 66.806ZM15.6156 69.6619L14.1514 67.9552L13.4886 68.547V69.6619H12.4498V63.9415H13.4886V67.5178L15.5958 65.5195H16.8819L14.8934 67.3977L16.9215 69.6619H15.6156Z" fill="#809FB8"/>
<path d="M0.494657 104.539V103.75C3.05698 102.069 4.05618 101.323 4.05618 100.499C4.05618 99.899 3.4626 99.6246 2.85911 99.6246C2.08745 99.6246 1.49386 99.899 1.07835 100.311L0.405619 99.6503C0.989313 99.0414 1.91927 98.7327 2.83933 98.7327C4.11554 98.7327 5.23347 99.3587 5.23347 100.499C5.23347 101.554 4.11554 102.498 2.34467 103.655H5.27304V104.539H0.494657ZM6.28933 101.683C6.28933 100.242 7.08078 98.7327 8.93079 98.7327C10.7808 98.7327 11.5723 100.242 11.5723 101.683C11.5723 103.124 10.7808 104.642 8.93079 104.642C7.08078 104.642 6.28933 103.124 6.28933 101.683ZM10.395 101.683C10.395 100.594 10.0091 99.6246 8.93079 99.6246C7.85244 99.6246 7.46661 100.594 7.46661 101.683C7.46661 102.772 7.85244 103.75 8.93079 103.75C10.0091 103.75 10.395 102.772 10.395 101.683ZM15.8185 104.539L14.3543 102.832L13.6915 103.424V104.539H12.6527V98.8184H13.6915V102.395L15.7987 100.396H17.0848L15.0963 102.275L17.1244 104.539H15.8185Z" fill="#809FB8"/>
<path d="M1.89948 139.416V134.999L0.82113 135.968L0.148397 135.359L2.04788 133.695H3.05698V139.416H1.89948ZM4.16385 136.56C4.16385 135.119 4.9553 133.61 6.80529 133.61C8.6553 133.61 9.44675 135.119 9.44675 136.56C9.44675 138.001 8.6553 139.519 6.80529 139.519C4.9553 139.519 4.16385 138.001 4.16385 136.56ZM8.26947 136.56C8.26947 135.471 7.88364 134.502 6.80529 134.502C5.72696 134.502 5.34113 135.471 5.34113 136.56C5.34113 137.649 5.72696 138.627 6.80529 138.627C7.88364 138.627 8.26947 137.649 8.26947 136.56ZM13.693 139.416L12.2288 137.709L11.566 138.301V139.416H10.5272V133.695H11.566V137.272L13.6732 135.273H14.9593L12.9708 137.152L14.9989 139.416H13.693Z" fill="#809FB8"/>
<path d="M0.405619 171.437C0.405619 169.996 1.19707 168.487 3.04708 168.487C4.8971 168.487 5.68855 169.996 5.68855 171.437C5.68855 172.878 4.8971 174.396 3.04708 174.396C1.19707 174.396 0.405619 172.878 0.405619 171.437ZM4.51127 171.437C4.51127 170.348 4.12544 169.379 3.04708 169.379C1.96873 169.379 1.5829 170.348 1.5829 171.437C1.5829 172.526 1.96873 173.504 3.04708 173.504C4.12544 173.504 4.51127 172.526 4.51127 171.437Z" fill="#809FB8"/>
<path d="M61.4165 194.785L61.9508 194.022C62.2179 194.27 62.574 194.493 63.0786 194.493C63.7909 194.493 64.2361 194.082 64.2361 193.456V189.562H65.3936V193.473C65.3936 194.776 64.4438 195.385 63.1676 195.385C62.485 195.385 61.8815 195.214 61.4165 194.785ZM69.6918 195.282V194.836C69.3357 195.188 68.7817 195.385 68.1485 195.385C67.3669 195.385 66.4864 194.931 66.4864 194.013C66.4864 193.061 67.3669 192.667 68.1485 192.667C68.7915 192.667 69.3456 192.847 69.6918 193.198V192.581C69.6918 192.101 69.2367 191.809 68.5739 191.809C68.0397 191.809 67.5747 191.981 67.1592 192.332L66.7338 191.706C67.2878 191.252 67.9803 191.037 68.7421 191.037C69.8006 191.037 70.7306 191.423 70.7306 192.538V195.282H69.6918ZM69.6918 194.339V193.713C69.4544 193.43 69.0092 193.284 68.5541 193.284C67.9704 193.284 67.5351 193.576 67.5351 194.03C67.5351 194.476 67.9704 194.768 68.5541 194.768C69.0092 194.768 69.4544 194.622 69.6918 194.339ZM75.3025 195.282V192.692C75.3025 192.049 74.9266 191.835 74.3429 191.835C73.8087 191.835 73.3536 192.109 73.1162 192.392V195.282H72.0774V191.14H73.1162V191.706C73.4327 191.38 74.0461 191.037 74.798 191.037C75.8269 191.037 76.3413 191.517 76.3413 192.366V195.282H75.3025Z" fill="#809FB8"/>
<path d="M144.483 195.282V189.562H149.004V190.445H145.64V191.929H148.934V192.812H145.64V195.282H144.483ZM149.711 193.207C149.711 192.006 150.721 191.037 152.135 191.037C153.57 191.037 154.49 191.989 154.49 193.293V193.507H150.8C150.879 194.133 151.423 194.648 152.323 194.648C152.788 194.648 153.342 194.485 153.679 194.193L154.153 194.785C153.679 195.18 152.976 195.385 152.214 195.385C150.78 195.385 149.711 194.519 149.711 193.207ZM152.135 191.775C151.245 191.775 150.839 192.366 150.79 192.872H153.481C153.461 192.384 153.075 191.775 152.135 191.775ZM155.515 195.282V189.562H156.553V191.715C156.929 191.277 157.483 191.037 158.087 191.037C159.314 191.037 160.204 191.878 160.204 193.216C160.204 194.579 159.304 195.385 158.087 195.385C157.464 195.385 156.92 195.128 156.553 194.716V195.282H155.515ZM156.553 194.039C156.781 194.348 157.295 194.588 157.78 194.588C158.611 194.588 159.136 194.022 159.136 193.216C159.136 192.409 158.611 191.835 157.78 191.835C157.295 191.835 156.781 192.092 156.553 192.401V194.039Z" fill="#809FB8"/>
<path d="M233.943 195.282V190.951L231.915 195.282H231.42L229.402 190.951V195.282H228.244V189.562H229.877L231.667 193.413L233.468 189.562H235.1V195.282H233.943ZM239.393 195.282V194.836C239.037 195.188 238.483 195.385 237.85 195.385C237.068 195.385 236.188 194.931 236.188 194.013C236.188 193.061 237.068 192.667 237.85 192.667C238.493 192.667 239.047 192.847 239.393 193.198V192.581C239.393 192.101 238.938 191.809 238.275 191.809C237.741 191.809 237.276 191.981 236.861 192.332L236.435 191.706C236.989 191.252 237.682 191.037 238.444 191.037C239.502 191.037 240.432 191.423 240.432 192.538V195.282H239.393ZM239.393 194.339V193.713C239.156 193.43 238.711 193.284 238.256 193.284C237.672 193.284 237.237 193.576 237.237 194.03C237.237 194.476 237.672 194.768 238.256 194.768C238.711 194.768 239.156 194.622 239.393 194.339ZM241.779 195.282V191.14H242.818V191.749C243.174 191.354 243.748 191.046 244.371 191.046V191.938C244.282 191.92 244.173 191.912 244.044 191.912C243.609 191.912 243.025 192.169 242.818 192.461V195.282H241.779Z" fill="#809FB8"/>
<path d="M316.676 195.282L316.191 194.185H313.065L312.58 195.282H311.314L313.906 189.562H315.35L317.942 195.282H316.676ZM314.628 190.411L313.391 193.301H315.865L314.628 190.411ZM319.672 196.86H318.633V191.14H319.672V191.706C320.028 191.294 320.582 191.037 321.206 191.037C322.442 191.037 323.323 191.843 323.323 193.207C323.323 194.571 322.442 195.385 321.206 195.385C320.602 195.385 320.058 195.154 319.672 194.708V196.86ZM322.244 193.207C322.244 192.409 321.72 191.835 320.899 191.835C320.414 191.835 319.9 192.083 319.672 192.392V194.03C319.9 194.33 320.414 194.588 320.899 194.588C321.72 194.588 322.244 194.013 322.244 193.207ZM324.372 195.282V191.14H325.411V191.749C325.767 191.354 326.341 191.046 326.964 191.046V191.938C326.875 191.92 326.766 191.912 326.638 191.912C326.202 191.912 325.619 192.169 325.411 192.461V195.282H324.372Z" fill="#809FB8"/>
<path d="M400.147 195.282V190.951L398.119 195.282H397.625L395.606 190.951V195.282H394.449V189.562H396.081L397.872 193.413L399.673 189.562H401.305V195.282H400.147ZM405.598 195.282V194.836C405.242 195.188 404.688 195.385 404.055 195.385C403.273 195.385 402.393 194.931 402.393 194.013C402.393 193.061 403.273 192.667 404.055 192.667C404.698 192.667 405.252 192.847 405.598 193.198V192.581C405.598 192.101 405.143 191.809 404.48 191.809C403.946 191.809 403.481 191.981 403.065 192.332L402.64 191.706C403.194 191.252 403.886 191.037 404.648 191.037C405.707 191.037 406.637 191.423 406.637 192.538V195.282H405.598ZM405.598 194.339V193.713C405.36 193.43 404.915 193.284 404.46 193.284C403.876 193.284 403.441 193.576 403.441 194.03C403.441 194.476 403.876 194.768 404.46 194.768C404.915 194.768 405.36 194.622 405.598 194.339ZM407.934 196.097C408.043 196.14 408.211 196.166 408.33 196.166C408.656 196.166 408.874 196.08 409.012 195.806L409.25 195.334L407.291 191.14H408.399L409.794 194.245L411.189 191.14H412.307L410.002 196.029C409.675 196.732 409.101 196.955 408.359 196.963C408.211 196.963 407.924 196.938 407.776 196.903L407.934 196.097Z" fill="#809FB8"/>
<path d="M420.788 134.101L388.828 142.648L356.125 148.481L324.908 157.648H290.718L260.989 165.981H226.055L195.582 157.648L163.622 165.981H129.432L99.7023 157.648H65.5128L34.2962 165.591" stroke="url(#paint0_linear_28_3229)" stroke-width="4"/>
<path d="M420.788 74.0535L357.612 109.577L323.422 117.077H292.948L260.245 125.41L229.772 126.244L179.231 132.91L129.432 139.577L66.2563 137.077L34.2962 145.829" stroke="url(#paint1_linear_28_3229)" stroke-width="4"/>
<path d="M420.788 22.6128L380.105 59.0838L356.857 75.6613L323.438 77.3188L292.926 88.0946H258.054L229.721 95.5543L193.397 93.8968L164.337 101.356L129.466 99.699L66.2615 111.303L34.2962 128.71" stroke="url(#paint2_linear_28_3229)" stroke-width="4"/>
<defs>
<linearGradient id="paint0_linear_28_3229" x1="39.4571" y1="157.701" x2="409.301" y2="173.559" gradientUnits="userSpaceOnUse">
<stop offset="0.109375" stop-color="#7133FA"/>
<stop offset="0.463542" stop-color="#0096EB"/>
<stop offset="0.838542" stop-color="#00D8A3"/>
</linearGradient>
<linearGradient id="paint1_linear_28_3229" x1="39.4571" y1="127.186" x2="409.847" y2="134.24" gradientUnits="userSpaceOnUse">
<stop offset="0.109375" stop-color="#FF548D"/>
<stop offset="0.463542" stop-color="#D700FF"/>
<stop offset="0.838542" stop-color="#5606EF"/>
</linearGradient>
<linearGradient id="paint2_linear_28_3229" x1="357.22" y1="112.795" x2="318.408" y2="-46.5768" gradientUnits="userSpaceOnUse">
<stop stop-color="#FFC600" stop-opacity="0.56"/>
<stop offset="1" stop-color="#FF7F00"/>
</linearGradient>
</defs>
</svg>
