<svg width="228" height="81" viewBox="0 0 228 81" fill="none" xmlns="http://www.w3.org/2000/svg">
<path d="M31.698 17.1053C46.0019 11.212 83.6694 3.31857 108.911 2.86416C134.152 2.40975 124.018 1.11984 160.351 2.28793C178.859 2.88299 196.022 7.83993 205.518 12.9269C215.015 18.0139 237.433 27.443 220.141 47.33C202.849 67.217 158.745 75.4238 121.903 77.7795C93.2678 79.6105 91.2636 79.7809 56.4783 76.3227C38.0847 74.4941 27.5517 71.9242 10.4723 62.4156C3.63284 58.6079 0.881824 57.5128 2.15672 52.0835C4.413 42.475 19.193 32.3039 31.3317 26.2058C44.6394 19.5205 51.4903 18.2484 67.2393 13.8309C82.1084 9.66018 107.328 6.03487 107.328 6.03487C107.328 6.03487 115.333 4.08097 120.474 4.79967C123.478 5.21946 125.094 5.78788 127.668 6.8534C129.484 7.60539 130.443 8.10542 131.944 9.08376" stroke="url(#paint0_linear_28_688)" stroke-width="3"/>
<defs>
<linearGradient id="paint0_linear_28_688" x1="1.00049" y1="29.5" x2="219.303" y2="65.6128" gradientUnits="userSpaceOnUse">
<stop offset="0.109375" stop-color="#FBBE00"/>
<stop offset="1" stop-color="#FF7F00"/>
</linearGradient>
</defs>
</svg>
