<svg width="24" height="24" viewBox="0 0 24 24" fill="none" xmlns="http://www.w3.org/2000/svg">
<path opacity="0.4" d="M16.19 2H7.81C4.17 2 2 4.17 2 7.81V16.18C2 19.83 4.17 22 7.81 22H16.18C19.82 22 21.99 19.83 21.99 16.19V7.81C22 4.17 19.83 2 16.19 2Z" fill="white" fill-opacity="0.8"/>
<path d="M12.5461 10.6576L16.6412 6H15.6707L12.1152 10.0443L9.27494 6H6L10.2946 12.1155L6 17H6.97049L10.7251 12.7292L13.7246 17H17L12.5461 10.6576ZM11.2173 12.1696L10.7817 11.5605L7.32084 6.715H8.81124L11.6047 10.6255L12.0403 11.2346L15.6717 16.3175H14.1813L11.2173 12.1696Z" fill="#E0DCE4"/>
</svg>
