<svg width="320" height="13" viewBox="0 0 320 13" fill="none" xmlns="http://www.w3.org/2000/svg">
<path d="M319.933 1.71401C320.738 3.84768 314.033 3.69184 311.948 4.31354C287.059 7.71383 240.941 9.68835 215.505 10.5322C194.947 11.1655 174.43 12.1785 153.845 12.4669C138.674 12.8914 123.485 12.4354 108.307 12.7289C76.3034 12.8797 44.139 13.0406 12.3362 10.5189C9.03508 10.0813 5.52812 10.0348 2.36947 9.28383C-5.72109 5.73268 9.23563 5.71444 12.5341 6.09078C107.518 10.9069 108.766 10.6267 180.953 9.05007C212.882 8.4234 244.606 5.86531 293.566 2.17655C294.812 2.06879 295.989 2.76675 295.796 3.56253C300.594 3.14141 305.372 2.63222 310.122 2.03563C312.584 1.64935 315.057 1.27965 317.498 0.843627C318.004 0.759741 318.542 0.803685 318.997 0.966051C319.453 1.12842 319.789 1.3963 319.933 1.71235V1.71401Z" fill="url(#paint0_linear_28_525)"/>
<defs>
<linearGradient id="paint0_linear_28_525" x1="0" y1="0.802002" x2="0.898736" y2="24.7683" gradientUnits="userSpaceOnUse">
<stop stop-color="#00E0A3"/>
<stop offset="1" stop-color="#00DED5"/>
</linearGradient>
</defs>
</svg>
