<svg width="369" height="338" viewBox="0 0 369 338" fill="none" xmlns="http://www.w3.org/2000/svg">
<rect width="364" height="319" rx="16" fill="white" fill-opacity="0.94"/>
<g filter="url(#filter0_dd_28_138)">
<path d="M43 54C43 48.4772 47.4772 44 53 44H310C315.523 44 320 48.4772 320 54V95C320 100.523 315.523 105 310 105H53C47.4772 105 43 100.523 43 95V54Z" fill="#F8FBFF"/>
<path d="M164.828 105.627C163.266 104.065 163.266 101.532 164.828 99.9704L178.971 85.8283C180.533 84.2662 183.065 84.2662 184.627 85.8283L198.77 99.9704C200.332 101.532 200.332 104.065 198.77 105.627L184.627 119.769C183.065 121.331 180.533 121.331 178.971 119.769L164.828 105.627Z" fill="#F8FBFF"/>
</g>
<circle cx="59" cy="61" r="4" fill="url(#paint0_linear_28_138)" fill-opacity="0.6"/>
<rect x="76" y="57" width="146" height="7" rx="3.5" fill="white" fill-opacity="0.94"/>
<circle cx="59" cy="75" r="4" fill="url(#paint1_linear_28_138)" fill-opacity="0.6"/>
<rect x="76" y="72" width="200" height="7" rx="3.5" fill="white" fill-opacity="0.94"/>
<circle cx="59" cy="89" r="4" fill="url(#paint2_linear_28_138)" fill-opacity="0.6"/>
<rect x="76" y="86" width="109" height="7" rx="3.5" fill="white" fill-opacity="0.94"/>
<g filter="url(#filter1_dd_28_138)">
<path d="M43 228C43 222.477 47.4772 218 53 218H310C315.523 218 320 222.477 320 228V269C320 274.522 315.523 279 310 279H53C47.4772 279 43 274.522 43 269V228Z" fill="#F8FBFF"/>
<path d="M164.828 222.627C163.266 221.065 163.266 218.532 164.828 216.97L178.971 202.828C180.533 201.266 183.065 201.266 184.627 202.828L198.77 216.97C200.332 218.532 200.332 221.065 198.77 222.627L184.627 236.769C183.065 238.331 180.533 238.331 178.971 236.769L164.828 222.627Z" fill="#F8FBFF"/>
</g>
<circle cx="59" cy="235" r="4" fill="url(#paint3_linear_28_138)"/>
<rect x="76" y="231" width="211" height="7" rx="3.5" fill="white" fill-opacity="0.94"/>
<circle cx="59" cy="249" r="4" fill="url(#paint4_linear_28_138)"/>
<rect x="76" y="246" width="147" height="7" rx="3.5" fill="white" fill-opacity="0.94"/>
<circle cx="59" cy="263" r="4" fill="url(#paint5_linear_28_138)"/>
<rect x="76" y="260" width="109" height="7" rx="3.5" fill="white" fill-opacity="0.94"/>
<circle cx="182" cy="160" r="30" fill="white"/>
<circle cx="182" cy="160" r="30" fill="url(#paint6_linear_28_138)"/>
<path d="M182 158.5C184.485 158.5 186.5 156.485 186.5 154C186.5 151.515 184.485 149.5 182 149.5C179.515 149.5 177.5 151.515 177.5 154C177.5 156.485 179.515 158.5 182 158.5Z" fill="white"/>
<path d="M171.5 172C171.5 166.201 176.201 161.5 182 161.5C187.799 161.5 192.5 166.201 192.5 172H171.5Z" fill="white"/>
<circle cx="275" cy="165" r="20" fill="white"/>
<circle cx="275" cy="165" r="20" fill="url(#paint7_linear_28_138)"/>
<path d="M274 164C274 162.895 274.895 162 276 162C277.105 162 278 162.895 278 164C278 165.105 277.105 166 276 166C275.447 166 274.949 165.777 274.586 165.414C274.223 165.051 274 164.553 274 164Z" fill="white"/>
<path fill-rule="evenodd" clip-rule="evenodd" d="M275 173C279.418 173 283 169.418 283 165C283 160.582 279.418 157 275 157C270.582 157 267 160.582 267 165C267 169.418 270.582 173 275 173ZM276 160C273.791 160 272 161.791 272 164C272 164.741 272.202 165.436 272.554 166.032L270.293 168.293C269.902 168.683 269.902 169.317 270.293 169.707C270.683 170.098 271.317 170.098 271.707 169.707L273.968 167.446C274.564 167.798 275.259 168 276 168C278.209 168 280 166.209 280 164C280 161.791 278.209 160 276 160Z" fill="white"/>
<circle cx="89" cy="165" r="20" fill="white"/>
<circle cx="89" cy="165" r="20" fill="url(#paint8_linear_28_138)"/>
<path d="M83 159C83 157.895 83.8954 157 85 157H89.5858C90.1162 157 90.6249 157.211 91 157.586L94.4142 161C94.7893 161.375 95 161.884 95 162.414V171C95 172.105 94.1046 173 93 173H91.4722C92.4223 171.938 93 170.537 93 169C93 165.686 90.3137 163 87 163C85.4633 163 84.0615 163.578 83 164.528V159Z" fill="white"/>
<path fill-rule="evenodd" clip-rule="evenodd" d="M87 165C84.7909 165 83 166.791 83 169C83 169.741 83.2023 170.436 83.554 171.032L82.2929 172.293C81.9024 172.683 81.9024 173.317 82.2929 173.707C82.6834 174.098 83.3166 174.098 83.7071 173.707L84.9682 172.446C85.5636 172.798 86.2586 173 87 173C89.2091 173 91 171.209 91 169C91 166.791 89.2091 165 87 165ZM85 169C85 167.895 85.8954 167 87 167C88.1046 167 89 167.895 89 169C89 170.105 88.1046 171 87 171C86.4474 171 85.9488 170.777 85.5858 170.414C85.2228 170.051 85 169.553 85 169Z" fill="white"/>
<defs>
<filter id="filter0_dd_28_138" x="42" y="43" width="327" height="136.941" filterUnits="userSpaceOnUse" color-interpolation-filters="sRGB">
<feFlood flood-opacity="0" result="BackgroundImageFix"/>
<feColorMatrix in="SourceAlpha" type="matrix" values="0 0 0 0 0 0 0 0 0 0 0 0 0 0 0 0 0 0 127 0" result="hardAlpha"/>
<feMorphology radius="1" operator="dilate" in="SourceAlpha" result="effect1_dropShadow_28_138"/>
<feOffset dx="26" dy="36"/>
<feGaussianBlur stdDeviation="11"/>
<feComposite in2="hardAlpha" operator="out"/>
<feColorMatrix type="matrix" values="0 0 0 0 0.305486 0 0 0 0 0.289097 0 0 0 0 0.383333 0 0 0 0.08 0"/>
<feBlend mode="normal" in2="BackgroundImageFix" result="effect1_dropShadow_28_138"/>
<feColorMatrix in="SourceAlpha" type="matrix" values="0 0 0 0 0 0 0 0 0 0 0 0 0 0 0 0 0 0 127 0" result="hardAlpha"/>
<feOffset dx="1" dy="1"/>
<feGaussianBlur stdDeviation="1"/>
<feComposite in2="hardAlpha" operator="out"/>
<feColorMatrix type="matrix" values="0 0 0 0 0.438414 0 0 0 0 0.418924 0 0 0 0 0.529167 0 0 0 0.19 0"/>
<feBlend mode="normal" in2="effect1_dropShadow_28_138" result="effect2_dropShadow_28_138"/>
<feBlend mode="normal" in="SourceGraphic" in2="effect2_dropShadow_28_138" result="shape"/>
</filter>
<filter id="filter1_dd_28_138" x="42" y="200.656" width="327" height="137.343" filterUnits="userSpaceOnUse" color-interpolation-filters="sRGB">
<feFlood flood-opacity="0" result="BackgroundImageFix"/>
<feColorMatrix in="SourceAlpha" type="matrix" values="0 0 0 0 0 0 0 0 0 0 0 0 0 0 0 0 0 0 127 0" result="hardAlpha"/>
<feMorphology radius="1" operator="dilate" in="SourceAlpha" result="effect1_dropShadow_28_138"/>
<feOffset dx="26" dy="36"/>
<feGaussianBlur stdDeviation="11"/>
<feComposite in2="hardAlpha" operator="out"/>
<feColorMatrix type="matrix" values="0 0 0 0 0.305486 0 0 0 0 0.289097 0 0 0 0 0.383333 0 0 0 0.08 0"/>
<feBlend mode="normal" in2="BackgroundImageFix" result="effect1_dropShadow_28_138"/>
<feColorMatrix in="SourceAlpha" type="matrix" values="0 0 0 0 0 0 0 0 0 0 0 0 0 0 0 0 0 0 127 0" result="hardAlpha"/>
<feOffset dx="1" dy="1"/>
<feGaussianBlur stdDeviation="1"/>
<feComposite in2="hardAlpha" operator="out"/>
<feColorMatrix type="matrix" values="0 0 0 0 0.438414 0 0 0 0 0.418924 0 0 0 0 0.529167 0 0 0 0.19 0"/>
<feBlend mode="normal" in2="effect1_dropShadow_28_138" result="effect2_dropShadow_28_138"/>
<feBlend mode="normal" in="SourceGraphic" in2="effect2_dropShadow_28_138" result="shape"/>
</filter>
<linearGradient id="paint0_linear_28_138" x1="55" y1="65" x2="63" y2="57" gradientUnits="userSpaceOnUse">
<stop stop-color="#FFB199"/>
<stop offset="1" stop-color="#FF0844"/>
</linearGradient>
<linearGradient id="paint1_linear_28_138" x1="55" y1="71" x2="63" y2="79" gradientUnits="userSpaceOnUse">
<stop stop-color="#00E0A3"/>
<stop offset="1" stop-color="#00DED5"/>
</linearGradient>
<linearGradient id="paint2_linear_28_138" x1="61.6842" y1="91.8" x2="55.3647" y2="84.6765" gradientUnits="userSpaceOnUse">
<stop stop-color="#FFC600" stop-opacity="0.56"/>
<stop offset="1" stop-color="#FF7F00"/>
</linearGradient>
<linearGradient id="paint3_linear_28_138" x1="55" y1="239" x2="63" y2="231" gradientUnits="userSpaceOnUse">
<stop stop-color="#FFB199"/>
<stop offset="1" stop-color="#FF0844"/>
</linearGradient>
<linearGradient id="paint4_linear_28_138" x1="61.6842" y1="251.8" x2="55.3647" y2="244.676" gradientUnits="userSpaceOnUse">
<stop stop-color="#FFC600" stop-opacity="0.56"/>
<stop offset="1" stop-color="#FF7F00"/>
</linearGradient>
<linearGradient id="paint5_linear_28_138" x1="55" y1="259" x2="63" y2="267" gradientUnits="userSpaceOnUse">
<stop stop-color="#00E0A3"/>
<stop offset="1" stop-color="#00DED5"/>
</linearGradient>
<linearGradient id="paint6_linear_28_138" x1="202.132" y1="181" x2="154.735" y2="127.574" gradientUnits="userSpaceOnUse">
<stop stop-color="#FFC600" stop-opacity="0.56"/>
<stop offset="1" stop-color="#FF7F00"/>
</linearGradient>
<linearGradient id="paint7_linear_28_138" x1="255" y1="145" x2="295" y2="185" gradientUnits="userSpaceOnUse">
<stop stop-color="#00E0A3"/>
<stop offset="1" stop-color="#00DED5"/>
</linearGradient>
<linearGradient id="paint8_linear_28_138" x1="89" y1="145" x2="89" y2="185" gradientUnits="userSpaceOnUse">
<stop stop-color="#792FFF"/>
<stop offset="1" stop-color="#C600FF"/>
</linearGradient>
</defs>
</svg>
