<svg width="532" height="207" viewBox="0 0 532 207" fill="none" xmlns="http://www.w3.org/2000/svg">
<g filter="url(#filter0_dd_28_504)">
<rect x="1" y="1" width="482" height="147" rx="20" fill="#FBFDFF"/>
</g>
<mask id="mask0_28_504" style="mask-type:alpha" maskUnits="userSpaceOnUse" x="155" y="43" width="306" height="86">
<rect x="155.863" y="43" width="305.137" height="86" fill="#D9D9D9"/>
</mask>
<g mask="url(#mask0_28_504)">
<path d="M195.388 97.2358C177.207 95.6867 140.843 78.2539 140.843 78.2539V132.101H468.114V44.5512C468.114 44.5512 466.533 44.1656 457.838 44.5512C449.142 44.9368 430.96 68.5692 419.893 68.5692C408.826 68.5692 408.328 66.9432 400.921 67.407C385.042 68.4015 386.692 79.8038 369.301 80.1908C351.909 80.5778 343.234 64.1633 320.289 64.3079C295.652 64.4632 287.878 83.2895 270.487 83.2899C253.096 83.2903 256.258 79.029 241.238 80.1908C226.218 81.3526 213.57 98.785 195.388 97.2358Z" fill="url(#paint0_linear_28_504)" stroke="url(#paint1_linear_28_504)" stroke-width="3"/>
</g>
<circle cx="31.5" cy="33.5" r="8.5" fill="url(#paint2_linear_28_504)"/>
<rect x="50" y="28" width="145" height="11" rx="5.5" fill="url(#paint3_linear_28_504)"/>
<path d="M34.5341 72.7273V96H30.3182V76.8295H30.1818L24.7386 80.3068V76.4432L30.5227 72.7273H34.5341ZM40.0227 91.6818V88.3295L49.8977 72.7273H52.6932V77.5H50.9886L44.3409 88.0341V88.2159H58.125V91.6818H40.0227ZM51.125 96V90.6591L51.1705 89.1591V72.7273H55.1477V96H51.125ZM69.8466 96.3182C68.3314 96.3182 66.9754 96.0341 65.7784 95.4659C64.5814 94.8902 63.6307 94.1023 62.9261 93.1023C62.2292 92.1023 61.858 90.9583 61.8125 89.6705H65.9034C65.9792 90.625 66.392 91.4053 67.142 92.0114C67.892 92.6098 68.7936 92.9091 69.8466 92.9091C70.6723 92.9091 71.4072 92.7197 72.0511 92.3409C72.6951 91.9621 73.2027 91.4356 73.5739 90.7614C73.9451 90.0871 74.1269 89.3182 74.1193 88.4545C74.1269 87.5758 73.9413 86.7955 73.5625 86.1136C73.1837 85.4318 72.6648 84.8977 72.0057 84.5114C71.3466 84.1174 70.589 83.9205 69.733 83.9205C69.036 83.9129 68.3504 84.0417 67.6761 84.3068C67.0019 84.572 66.4678 84.9205 66.0739 85.3523L62.267 84.7273L63.483 72.7273H76.983V76.25H66.9716L66.3011 82.4205H66.4375C66.8693 81.9129 67.4792 81.4924 68.267 81.1591C69.0549 80.8182 69.9186 80.6477 70.858 80.6477C72.267 80.6477 73.5246 80.9811 74.6307 81.6477C75.7367 82.3068 76.608 83.2159 77.2443 84.375C77.8807 85.5341 78.1989 86.8598 78.1989 88.3523C78.1989 89.8902 77.8428 91.2614 77.1307 92.4659C76.4261 93.6629 75.4451 94.6061 74.1875 95.2955C72.9375 95.9773 71.4905 96.3182 69.8466 96.3182ZM82.233 96V72.7273H86.4489V83.4205H86.733L95.8125 72.7273H100.96L91.9602 83.1705L101.04 96H95.9716L89.0284 86.0227L86.4489 89.0682V96H82.233Z" fill="#131736"/>
<path d="M27.2773 116.168V108.966H28.7102V116.168H27.2773ZM24.3956 113.281V111.853H31.5973V113.281H24.3956ZM37.6404 118.149C36.9728 118.149 36.3727 118.021 35.84 117.766C35.3109 117.506 34.8883 117.151 34.5723 116.7C34.2562 116.249 34.0875 115.734 34.0662 115.156H35.6642C35.7033 115.624 35.911 116.01 36.2875 116.311C36.6639 116.613 37.1149 116.764 37.6404 116.764C38.0595 116.764 38.4306 116.668 38.7537 116.477C39.0804 116.281 39.3361 116.013 39.5208 115.672C39.709 115.331 39.8031 114.942 39.8031 114.506C39.8031 114.062 39.7072 113.666 39.5154 113.318C39.3237 112.97 39.0591 112.696 38.7218 112.498C38.388 112.299 38.0044 112.197 37.5712 112.194C37.2409 112.194 36.9089 112.251 36.5751 112.364C36.2413 112.478 35.9714 112.627 35.7654 112.812L34.258 112.588L34.8706 107.091H40.8684V108.502H36.2395L35.8933 111.555H35.9572C36.1703 111.349 36.4526 111.176 36.8042 111.038C37.1593 110.9 37.5392 110.83 37.9441 110.83C38.6081 110.83 39.1994 110.988 39.7179 111.304C40.2399 111.62 40.65 112.052 40.9483 112.599C41.2502 113.142 41.3993 113.767 41.3958 114.474C41.3993 115.18 41.2395 115.811 40.9164 116.365C40.5968 116.919 40.1529 117.355 39.5847 117.675C39.0201 117.991 38.372 118.149 37.6404 118.149ZM47.1499 118.149C46.6634 118.142 46.184 118.053 45.7117 117.883C45.243 117.712 44.8169 117.428 44.4333 117.031C44.0498 116.633 43.7426 116.098 43.5118 115.427C43.2845 114.756 43.1709 113.918 43.1709 112.913C43.1709 111.961 43.265 111.116 43.4532 110.377C43.645 109.639 43.9202 109.016 44.2789 108.508C44.6375 107.996 45.0708 107.608 45.5786 107.341C46.0864 107.075 46.6563 106.942 47.2884 106.942C47.9383 106.942 48.5154 107.07 49.0196 107.325C49.5239 107.581 49.9323 107.934 50.2448 108.385C50.5608 108.836 50.7615 109.349 50.8467 109.925H49.222C49.1119 109.47 48.8936 109.099 48.5669 108.811C48.2401 108.524 47.814 108.38 47.2884 108.38C46.4894 108.38 45.8662 108.728 45.4188 109.424C44.9749 110.12 44.7512 111.088 44.7476 112.327H44.8275C45.0157 112.018 45.2465 111.755 45.52 111.539C45.797 111.319 46.1059 111.15 46.4468 111.033C46.7913 110.912 47.1535 110.852 47.5335 110.852C48.1656 110.852 48.7373 111.006 49.2487 111.315C49.7636 111.62 50.1737 112.043 50.4791 112.583C50.7845 113.123 50.9372 113.74 50.9372 114.436C50.9372 115.132 50.7792 115.763 50.4632 116.327C50.1507 116.892 49.7103 117.339 49.1421 117.67C48.574 117.996 47.9099 118.156 47.1499 118.149ZM47.1446 116.764C47.5637 116.764 47.9383 116.661 48.2686 116.455C48.5988 116.249 48.8598 115.972 49.0516 115.624C49.2433 115.276 49.3392 114.887 49.3392 114.458C49.3392 114.039 49.2451 113.657 49.0569 113.312C48.8722 112.968 48.6166 112.695 48.2899 112.492C47.9667 112.29 47.5974 112.189 47.1819 112.189C46.8659 112.189 46.5729 112.249 46.303 112.37C46.0367 112.49 45.8023 112.657 45.5999 112.87C45.3975 113.083 45.2377 113.328 45.1205 113.605C45.0068 113.879 44.95 114.168 44.95 114.474C44.95 114.882 45.0441 115.26 45.2323 115.608C45.4241 115.956 45.6851 116.237 46.0154 116.45C46.3492 116.659 46.7256 116.764 47.1446 116.764ZM53.4501 118.101C53.1589 118.101 52.9086 117.998 52.699 117.792C52.4895 117.583 52.3848 117.331 52.3848 117.036C52.3848 116.745 52.4895 116.496 52.699 116.29C52.9086 116.081 53.1589 115.976 53.4501 115.976C53.7413 115.976 53.9917 116.081 54.2012 116.29C54.4107 116.496 54.5154 116.745 54.5154 117.036C54.5154 117.231 54.4657 117.411 54.3663 117.574C54.2704 117.734 54.1426 117.862 53.9828 117.957C53.823 118.053 53.6454 118.101 53.4501 118.101ZM59.9474 118.149C59.1839 118.149 58.5091 118.018 57.9232 117.755C57.3408 117.492 56.8845 117.13 56.5542 116.668C56.224 116.207 56.0606 115.681 56.0642 115.092C56.0606 114.63 56.1547 114.206 56.3465 113.819C56.5418 113.428 56.8064 113.103 57.1402 112.844C57.474 112.581 57.8469 112.414 58.2588 112.343V112.279C57.7155 112.148 57.2805 111.857 56.9537 111.406C56.627 110.955 56.4655 110.436 56.469 109.85C56.4655 109.293 56.6128 108.795 56.9111 108.359C57.213 107.918 57.6267 107.572 58.1523 107.32C58.6778 107.068 59.2762 106.942 59.9474 106.942C60.6114 106.942 61.2045 107.07 61.7265 107.325C62.252 107.577 62.6657 107.924 62.9676 108.364C63.2694 108.801 63.4221 109.296 63.4257 109.85C63.4221 110.436 63.2552 110.955 62.925 111.406C62.5947 111.857 62.165 112.148 61.6359 112.279V112.343C62.0443 112.414 62.4118 112.581 62.7385 112.844C63.0688 113.103 63.3316 113.428 63.5269 113.819C63.7258 114.206 63.827 114.63 63.8305 115.092C63.827 115.681 63.6601 116.207 63.3298 116.668C62.9996 117.13 62.5415 117.492 61.9555 117.755C61.3731 118.018 60.7037 118.149 59.9474 118.149ZM59.9474 116.801C60.3983 116.801 60.789 116.727 61.1192 116.578C61.4495 116.425 61.7052 116.214 61.8863 115.944C62.0674 115.67 62.1597 115.351 62.1633 114.985C62.1597 114.605 62.0603 114.27 61.865 113.978C61.6732 113.687 61.4122 113.458 61.0819 113.291C60.7517 113.124 60.3735 113.041 59.9474 113.041C59.5177 113.041 59.1359 113.124 58.8021 113.291C58.4683 113.458 58.2055 113.687 58.0138 113.978C57.822 114.27 57.7279 114.605 57.7314 114.985C57.7279 115.351 57.8149 115.67 57.9925 115.944C58.1736 116.214 58.431 116.425 58.7648 116.578C59.0986 116.727 59.4928 116.801 59.9474 116.801ZM59.9474 111.725C60.3096 111.725 60.6309 111.652 60.9115 111.507C61.192 111.361 61.4122 111.159 61.572 110.9C61.7354 110.64 61.8188 110.337 61.8224 109.989C61.8188 109.648 61.7371 109.349 61.5773 109.094C61.4211 108.838 61.2027 108.641 60.9221 108.502C60.6416 108.36 60.3167 108.289 59.9474 108.289C59.5709 108.289 59.2407 108.36 58.9566 108.502C58.676 108.641 58.4577 108.838 58.3014 109.094C58.1452 109.349 58.0688 109.648 58.0724 109.989C58.0688 110.337 58.1469 110.64 58.3067 110.9C58.4665 111.159 58.6867 111.361 58.9672 111.507C59.2513 111.652 59.578 111.725 59.9474 111.725ZM66.1064 118L70.8684 108.582V108.502H65.3606V107.091H72.573V108.55L67.8269 118H66.1064ZM80.1196 115.955V115.379C80.1196 114.967 80.2048 114.591 80.3753 114.25C80.5493 113.906 80.8014 113.63 81.1317 113.424C81.4655 113.215 81.8685 113.11 82.3408 113.11C82.8238 113.11 83.2286 113.213 83.5553 113.419C83.882 113.625 84.1288 113.9 84.2957 114.245C84.4662 114.589 84.5514 114.967 84.5514 115.379V115.955C84.5514 116.366 84.4662 116.745 84.2957 117.089C84.1253 117.43 83.8749 117.705 83.5447 117.915C83.218 118.121 82.8167 118.224 82.3408 118.224C81.8614 118.224 81.4566 118.121 81.1263 117.915C80.7961 117.705 80.5457 117.43 80.3753 117.089C80.2048 116.745 80.1196 116.366 80.1196 115.955ZM81.3607 115.379V115.955C81.3607 116.26 81.4335 116.537 81.5791 116.786C81.7247 117.034 81.9786 117.158 82.3408 117.158C82.6995 117.158 82.9498 117.034 83.0919 116.786C83.2339 116.537 83.305 116.26 83.305 115.955V115.379C83.305 115.074 83.2357 114.797 83.0972 114.548C82.9623 114.3 82.7101 114.175 82.3408 114.175C81.9857 114.175 81.7336 114.3 81.5844 114.548C81.4353 114.797 81.3607 115.074 81.3607 115.379ZM74.6331 109.712V109.136C74.6331 108.724 74.7183 108.346 74.8888 108.002C75.0628 107.657 75.3149 107.382 75.6452 107.176C75.979 106.97 76.382 106.867 76.8543 106.867C77.3373 106.867 77.7421 106.97 78.0688 107.176C78.3955 107.382 78.6423 107.657 78.8092 108.002C78.9761 108.346 79.0596 108.724 79.0596 109.136V109.712C79.0596 110.124 78.9743 110.502 78.8039 110.846C78.637 111.187 78.3884 111.462 78.0582 111.672C77.7314 111.878 77.3302 111.981 76.8543 111.981C76.3714 111.981 75.9648 111.878 75.6345 111.672C75.3078 111.462 75.0592 111.187 74.8888 110.846C74.7183 110.502 74.6331 110.124 74.6331 109.712ZM75.8795 109.136V109.712C75.8795 110.017 75.9506 110.294 76.0926 110.543C76.2382 110.791 76.4921 110.915 76.8543 110.915C77.2094 110.915 77.458 110.791 77.6001 110.543C77.7456 110.294 77.8184 110.017 77.8184 109.712V109.136C77.8184 108.831 77.7492 108.554 77.6107 108.305C77.4722 108.057 77.2201 107.933 76.8543 107.933C76.4992 107.933 76.2471 108.057 76.0979 108.305C75.9523 108.554 75.8795 108.831 75.8795 109.136ZM75.1391 118L82.6391 107.091H83.9122L76.4122 118H75.1391Z" fill="#00E0A3"/>
<defs>
<filter id="filter0_dd_28_504" x="0" y="0" width="532" height="207" filterUnits="userSpaceOnUse" color-interpolation-filters="sRGB">
<feFlood flood-opacity="0" result="BackgroundImageFix"/>
<feColorMatrix in="SourceAlpha" type="matrix" values="0 0 0 0 0 0 0 0 0 0 0 0 0 0 0 0 0 0 127 0" result="hardAlpha"/>
<feMorphology radius="1" operator="dilate" in="SourceAlpha" result="effect1_dropShadow_28_504"/>
<feOffset dx="26" dy="36"/>
<feGaussianBlur stdDeviation="11"/>
<feComposite in2="hardAlpha" operator="out"/>
<feColorMatrix type="matrix" values="0 0 0 0 0.305486 0 0 0 0 0.289097 0 0 0 0 0.383333 0 0 0 0.08 0"/>
<feBlend mode="normal" in2="BackgroundImageFix" result="effect1_dropShadow_28_504"/>
<feColorMatrix in="SourceAlpha" type="matrix" values="0 0 0 0 0 0 0 0 0 0 0 0 0 0 0 0 0 0 127 0" result="hardAlpha"/>
<feOffset dx="1" dy="1"/>
<feGaussianBlur stdDeviation="1"/>
<feComposite in2="hardAlpha" operator="out"/>
<feColorMatrix type="matrix" values="0 0 0 0 0.438414 0 0 0 0 0.418924 0 0 0 0 0.529167 0 0 0 0.19 0"/>
<feBlend mode="normal" in2="effect1_dropShadow_28_504" result="effect2_dropShadow_28_504"/>
<feBlend mode="normal" in="SourceGraphic" in2="effect2_dropShadow_28_504" result="shape"/>
</filter>
<linearGradient id="paint0_linear_28_504" x1="384.32" y1="132.099" x2="387.761" y2="47.0698" gradientUnits="userSpaceOnUse">
<stop stop-color="#FFC600" stop-opacity="0"/>
<stop offset="1" stop-color="#FFC700" stop-opacity="0.42"/>
</linearGradient>
<linearGradient id="paint1_linear_28_504" x1="304.479" y1="44.3799" x2="316.63" y2="141.003" gradientUnits="userSpaceOnUse">
<stop stop-color="#FBBF04"/>
<stop offset="1" stop-color="#FF0013"/>
</linearGradient>
<linearGradient id="paint2_linear_28_504" x1="31.5" y1="25" x2="31.5" y2="42" gradientUnits="userSpaceOnUse">
<stop stop-color="#792FFF"/>
<stop offset="1" stop-color="#C600FF"/>
</linearGradient>
<linearGradient id="paint3_linear_28_504" x1="76.7514" y1="32.4322" x2="78.454" y2="45.0932" gradientUnits="userSpaceOnUse">
<stop stop-color="#00E0A3"/>
<stop offset="1" stop-color="#00DED5"/>
</linearGradient>
</defs>
</svg>
