<svg width="137" height="137" viewBox="0 0 137 137" fill="none" xmlns="http://www.w3.org/2000/svg">
<g filter="url(#filter0_d_28_515)">
<rect x="19.6546" y="52.3422" width="72" height="72" rx="12" transform="rotate(-27 19.6546 52.3422)" fill="#FBFDFF"/>
</g>
<path d="M90.1542 68.2232C90.1542 56.1099 80.3992 46.2956 68.3592 46.2956C56.3193 46.2956 46.5642 56.1099 46.5642 68.2232C46.5642 79.1676 54.5344 88.2392 64.9538 89.8856L64.9538 74.5619L59.4171 74.5619L59.4171 68.2232L64.9538 68.2232L64.9538 63.392C64.9538 57.8969 68.2054 54.8615 73.1858 54.8615C75.5709 54.8615 78.065 55.2894 78.065 55.2894L78.065 60.6829L75.3161 60.6829C72.6093 60.6829 71.7647 62.3735 71.7647 64.1073L71.7647 68.2232L77.8093 68.2232L76.8426 74.5619L71.7647 74.5619L71.7647 89.8856C82.1841 88.2392 90.1542 79.1676 90.1542 68.2232Z" fill="url(#paint0_linear_28_515)"/>
<defs>
<filter id="filter0_d_28_515" x="22.792" y="22.7923" width="92.565" height="92.565" filterUnits="userSpaceOnUse" color-interpolation-filters="sRGB">
<feFlood flood-opacity="0" result="BackgroundImageFix"/>
<feColorMatrix in="SourceAlpha" type="matrix" values="0 0 0 0 0 0 0 0 0 0 0 0 0 0 0 0 0 0 127 0" result="hardAlpha"/>
<feOffset dx="1" dy="1"/>
<feGaussianBlur stdDeviation="1"/>
<feComposite in2="hardAlpha" operator="out"/>
<feColorMatrix type="matrix" values="0 0 0 0 0.438414 0 0 0 0 0.418924 0 0 0 0 0.529167 0 0 0 0.19 0"/>
<feBlend mode="normal" in2="BackgroundImageFix" result="effect1_dropShadow_28_515"/>
<feBlend mode="normal" in="SourceGraphic" in2="effect1_dropShadow_28_515" result="shape"/>
</filter>
<linearGradient id="paint0_linear_28_515" x1="49.5363" y1="46.2956" x2="84.2101" y2="89.8856" gradientUnits="userSpaceOnUse">
<stop stop-color="#7C23FD"/>
<stop offset="1" stop-color="#19BBE5"/>
</linearGradient>
</defs>
</svg>
