<svg width="99" height="99" viewBox="0 0 99 99" fill="none" xmlns="http://www.w3.org/2000/svg">
<g filter="url(#filter0_d_28_518)">
<rect x="37.3398" width="72" height="72" rx="12" transform="rotate(31.2386 37.3398 0)" fill="#FBFDFF"/>
</g>
<path d="M53.1468 42.9501C49.7251 40.8746 45.2389 41.9732 43.1633 45.3949C41.0878 48.8166 42.1864 53.3028 45.6081 55.3784C49.0299 57.4539 53.5161 56.3553 55.5916 52.9336C57.6671 49.5118 56.5685 45.0256 53.1468 42.9501ZM68.0152 60.4694C69.5761 57.8961 71.1461 55.3603 72.5597 52.704C74.2249 49.6328 75.1504 46.5721 74.2921 43.067C73.4319 39.5545 71.1987 37.2752 68.3029 35.3209C65.8172 33.6155 63.2531 32.0921 60.6845 30.534C58.1112 28.9731 55.5754 27.4031 52.9191 25.9895C49.8479 24.3243 46.7872 23.3988 43.2821 24.2571C39.7695 25.1173 37.4903 27.3505 35.536 30.2463C33.8306 32.732 32.3072 35.2961 30.7491 37.8647C29.191 40.4333 27.6181 42.9738 26.2046 45.6301C24.5394 48.7013 23.6138 51.762 24.4722 55.2671C25.3323 58.7797 27.5655 61.0589 30.4614 63.0132C32.947 64.7186 35.5111 66.242 38.0798 67.8001C40.6531 69.361 43.1889 70.9311 45.8452 72.3446C48.9164 74.0098 51.9771 74.9354 55.4822 74.077C58.9947 73.2169 61.274 70.9837 63.2283 68.0878C64.9355 65.6097 66.4543 63.0427 68.0152 60.4694ZM43.5778 58.7255C38.2867 55.516 36.6068 48.6557 39.8162 43.3646C43.0257 38.0735 49.886 36.3935 55.1771 39.603C60.4682 42.8124 62.1482 49.6728 58.9387 54.9639C55.7293 60.255 48.8689 61.9349 43.5778 58.7255ZM64.013 47.4815C62.7776 46.7322 62.3852 45.1294 63.1345 43.8941C63.8838 42.6587 65.4866 42.2662 66.722 43.0156C67.9573 43.7649 68.3498 45.3677 67.6005 46.603C67.4229 46.8966 67.1892 47.1522 66.9126 47.3553C66.6361 47.5584 66.3223 47.705 65.989 47.7866C65.6558 47.8682 65.3097 47.8832 64.9706 47.8309C64.6315 47.7786 64.3061 47.6598 64.013 47.4815Z" fill="url(#paint0_linear_28_518)"/>
<defs>
<filter id="filter0_d_28_518" x="3.48209" y="3.48166" width="93.9372" height="93.9372" filterUnits="userSpaceOnUse" color-interpolation-filters="sRGB">
<feFlood flood-opacity="0" result="BackgroundImageFix"/>
<feColorMatrix in="SourceAlpha" type="matrix" values="0 0 0 0 0 0 0 0 0 0 0 0 0 0 0 0 0 0 127 0" result="hardAlpha"/>
<feOffset dx="1" dy="1"/>
<feGaussianBlur stdDeviation="1"/>
<feComposite in2="hardAlpha" operator="out"/>
<feColorMatrix type="matrix" values="0 0 0 0 0.438414 0 0 0 0 0.418924 0 0 0 0 0.529167 0 0 0 0.19 0"/>
<feBlend mode="normal" in2="BackgroundImageFix" result="effect1_dropShadow_28_518"/>
<feBlend mode="normal" in="SourceGraphic" in2="effect1_dropShadow_28_518" result="shape"/>
</filter>
<linearGradient id="paint0_linear_28_518" x1="52.0719" y1="71.8284" x2="44.7377" y2="18.8574" gradientUnits="userSpaceOnUse">
<stop stop-color="#FF4AA4" stop-opacity="0.7"/>
<stop offset="1" stop-color="#E300FF"/>
</linearGradient>
</defs>
</svg>
