<svg width="403" height="460" viewBox="0 0 403 460" fill="none" xmlns="http://www.w3.org/2000/svg">
<g filter="url(#filter0_dd_28_437)">
<path d="M325.754 1H30.1808C14.0647 1 1 14.0647 1 30.1808V372.819C1 388.935 14.0647 402 30.1808 402H325.754C341.87 402 354.934 388.935 354.934 372.819V30.1808C354.934 14.0647 341.87 1 325.754 1Z" fill="#FBFDFF"/>
</g>
<g filter="url(#filter1_d_28_437)">
<path d="M69.2448 106.528C87.7003 106.528 102.661 91.9654 102.661 74.002C102.661 56.0387 87.7003 41.4765 69.2448 41.4765C50.7893 41.4765 35.8281 56.0387 35.8281 74.002C35.8281 91.9654 50.7893 106.528 69.2448 106.528Z" fill="white"/>
</g>
<mask id="mask0_28_437" style="mask-type:alpha" maskUnits="userSpaceOnUse" x="44" y="49" width="51" height="50">
<path d="M69.2759 98.8956C83.0526 98.8956 94.2208 87.7274 94.2208 73.9507C94.2208 60.1741 83.0526 49.0059 69.2759 49.0059C55.4993 49.0059 44.3311 60.1741 44.3311 73.9507C44.3311 87.7274 55.4993 98.8956 69.2759 98.8956Z" fill="#D9D9D9"/>
</mask>
<g mask="url(#mask0_28_437)">
<path d="M95.163 63.1246H67.8649V98.8946H95.163V63.1246Z" fill="white"/>
<path d="M49.2367 59.3616L29.3002 92.4074L60.3635 111.148L80.3 78.102L49.2367 59.3616Z" fill="white"/>
<path d="M49.2367 59.3616L29.3002 92.4074L60.3635 111.148L80.3 78.102L49.2367 59.3616Z" fill="url(#paint0_linear_28_437)"/>
<path d="M95.163 63.1246H67.8649V98.8946H95.163V63.1246Z" fill="white"/>
<path d="M95.163 63.1246H67.8649V98.8946H95.163V63.1246Z" fill="url(#paint1_linear_28_437)"/>
<path d="M69.5371 71.6086L49.6006 104.654L60.3638 111.148L80.3002 78.102L69.5371 71.6086Z" fill="url(#paint2_linear_28_437)"/>
<path d="M80.5773 36.7665L47.1555 56.066L62.0416 81.8448L95.4634 62.5453L80.5773 36.7665Z" fill="url(#paint3_linear_28_437)"/>
<path d="M95.1917 63.123H67.8936V74.4188H95.1917V63.123Z" fill="white"/>
<path d="M95.1917 63.123H67.8936V80.0667H95.1917V63.123Z" fill="url(#paint4_linear_28_437)"/>
</g>
<path d="M69.2742 85.7165C75.7726 85.7165 81.0406 80.4485 81.0406 73.9501C81.0406 67.4517 75.7726 62.1837 69.2742 62.1837C62.7758 62.1837 57.5078 67.4517 57.5078 73.9501C57.5078 80.4485 62.7758 85.7165 69.2742 85.7165Z" fill="white"/>
<path d="M69.2747 83.8339C74.7334 83.8339 79.1585 79.4088 79.1585 73.9501C79.1585 68.4914 74.7334 64.0663 69.2747 64.0663C63.8161 64.0663 59.3909 68.4914 59.3909 73.9501C59.3909 79.4088 63.8161 83.8339 69.2747 83.8339Z" fill="url(#paint5_linear_28_437)"/>
<path d="M128.627 70.9782C129.847 70.9782 130.902 70.7523 131.79 70.3005C132.694 69.8336 133.387 69.2161 133.869 68.448C134.366 67.6648 134.614 66.8063 134.614 65.8725C134.614 64.9387 134.396 64.133 133.959 63.4552C133.537 62.7624 132.92 62.1976 132.106 61.7609C132.679 61.3843 133.123 60.8873 133.439 60.2698C133.756 59.6373 133.914 58.9445 133.914 58.1914C133.914 57.3028 133.688 56.5121 133.236 55.8193C132.784 55.1265 132.159 54.5843 131.361 54.1927C130.563 53.8011 129.651 53.6053 128.627 53.6053C127.588 53.6053 126.669 53.8086 125.871 54.2153C125.073 54.6069 124.448 55.1491 123.996 55.8419C123.544 56.5196 123.318 57.3028 123.318 58.1914C123.318 58.9294 123.476 59.6222 123.793 60.2698C124.109 60.9175 124.561 61.4145 125.148 61.7609C123.476 62.6344 122.641 63.9974 122.641 65.8499C122.641 66.7837 122.882 67.6422 123.363 68.4254C123.861 69.2086 124.553 69.8336 125.442 70.3005C126.346 70.7523 127.407 70.9782 128.627 70.9782ZM128.627 60.5635C127.965 60.5635 127.422 60.3602 127.001 59.9535C126.594 59.5318 126.391 59.0047 126.391 58.3721C126.391 57.7546 126.594 57.2426 127.001 56.8359C127.422 56.4142 127.965 56.2034 128.627 56.2034C129.29 56.2034 129.825 56.4142 130.231 56.8359C130.638 57.2426 130.841 57.7546 130.841 58.3721C130.841 59.0047 130.638 59.5318 130.231 59.9535C129.825 60.3602 129.29 60.5635 128.627 60.5635ZM128.627 68.3802C127.754 68.3802 127.053 68.1392 126.526 67.6573C125.999 67.1753 125.736 66.5428 125.736 65.7596C125.736 64.9764 125.999 64.3514 126.526 63.8845C127.053 63.4025 127.754 63.1615 128.627 63.1615C129.501 63.1615 130.201 63.4025 130.728 63.8845C131.271 64.3514 131.542 64.9764 131.542 65.7596C131.542 66.5428 131.271 67.1753 130.728 67.6573C130.201 68.1392 129.501 68.3802 128.627 68.3802ZM143.376 70.9782C144.505 70.9782 145.507 70.7372 146.381 70.2553C147.269 69.7583 147.962 69.0881 148.459 68.2446C148.956 67.3862 149.204 66.4147 149.204 65.3303C149.204 64.3062 148.971 63.395 148.504 62.5968C148.052 61.7985 147.427 61.166 146.629 60.6991C145.831 60.2322 144.92 59.9987 143.895 59.9987C143.654 59.9987 143.429 60.0138 143.218 60.0439L148.03 53.8764H144.37L139.671 59.9761C139.099 60.7292 138.654 61.4145 138.338 62.032C138.022 62.6495 137.803 63.2293 137.683 63.7715C137.577 64.3137 137.525 64.8559 137.525 65.3981C137.525 66.4674 137.773 67.4238 138.27 68.2672C138.767 69.1107 139.452 69.7733 140.326 70.2553C141.215 70.7372 142.231 70.9782 143.376 70.9782ZM143.376 68.1995C142.593 68.1995 141.93 67.9359 141.388 67.4088C140.861 66.8816 140.597 66.2039 140.597 65.3755C140.597 64.5321 140.861 63.8544 141.388 63.3423C141.93 62.8151 142.593 62.5516 143.376 62.5516C144.159 62.5516 144.814 62.8151 145.341 63.3423C145.868 63.8544 146.132 64.5321 146.132 65.3755C146.132 66.2039 145.861 66.8816 145.319 67.4088C144.792 67.9359 144.144 68.1995 143.376 68.1995ZM159.474 70.7071H162.501V67.0021H164.964V64.4267H162.501V53.8764H159.293L151.748 64.4267V67.0021H159.474V70.7071ZM159.474 64.4267H154.775L159.474 57.6718V64.4267ZM168.834 74.2314C171.123 73.7495 172.268 72.168 172.268 69.4872V67.5443H169.286V70.7071H170.618C170.483 71.8216 169.888 72.5069 168.834 72.763V74.2314ZM182.195 70.9782C183.324 70.9782 184.326 70.7372 185.199 70.2553C186.088 69.7583 186.781 69.0881 187.278 68.2446C187.775 67.3862 188.023 66.4147 188.023 65.3303C188.023 64.3062 187.79 63.395 187.323 62.5968C186.871 61.7985 186.246 61.166 185.448 60.6991C184.65 60.2322 183.738 59.9987 182.714 59.9987C182.473 59.9987 182.247 60.0138 182.037 60.0439L186.849 53.8764H183.189L178.49 59.9761C177.917 60.7292 177.473 61.4145 177.157 62.032C176.841 62.6495 176.622 63.2293 176.502 63.7715C176.396 64.3137 176.343 64.8559 176.343 65.3981C176.343 66.4674 176.592 67.4238 177.089 68.2672C177.586 69.1107 178.271 69.7733 179.145 70.2553C180.033 70.7372 181.05 70.9782 182.195 70.9782ZM182.195 68.1995C181.412 68.1995 180.749 67.9359 180.207 67.4088C179.68 66.8816 179.416 66.2039 179.416 65.3755C179.416 64.5321 179.68 63.8544 180.207 63.3423C180.749 62.8151 181.412 62.5516 182.195 62.5516C182.978 62.5516 183.633 62.8151 184.16 63.3423C184.687 63.8544 184.951 64.5321 184.951 65.3755C184.951 66.2039 184.68 66.8816 184.138 67.4088C183.61 67.9359 182.963 68.1995 182.195 68.1995ZM190.792 70.7071H202.088V68.1091H194.79L198.744 63.9523C199.813 62.8377 200.596 61.8512 201.093 60.9928C201.606 60.1343 201.862 59.2457 201.862 58.327C201.862 57.3932 201.628 56.5723 201.161 55.8645C200.709 55.1566 200.069 54.6069 199.241 54.2153C198.428 53.8086 197.479 53.6053 196.394 53.6053C195.491 53.6053 194.632 53.7861 193.819 54.1475C193.021 54.4939 192.343 54.9985 191.786 55.6612C191.229 56.3088 190.86 57.0769 190.679 57.9655L193.367 58.8014C193.608 58.0031 193.992 57.4007 194.519 56.9941C195.046 56.5723 195.672 56.3615 196.394 56.3615C197.087 56.3615 197.652 56.5648 198.089 56.9715C198.541 57.3781 198.767 57.9354 198.767 58.6432C198.767 59.0649 198.669 59.4791 198.473 59.8858C198.277 60.2924 197.931 60.7819 197.434 61.3542C196.937 61.9265 196.244 62.6796 195.355 63.6134L190.792 68.3802V70.7071ZM211.163 70.9782C212.383 70.9782 213.437 70.7523 214.326 70.3005C215.229 69.8336 215.922 69.2161 216.404 68.448C216.901 67.6648 217.149 66.8063 217.149 65.8725C217.149 64.9387 216.931 64.133 216.494 63.4552C216.073 62.7624 215.455 62.1976 214.642 61.7609C215.214 61.3843 215.658 60.8873 215.975 60.2698C216.291 59.6373 216.449 58.9445 216.449 58.1914C216.449 57.3028 216.223 56.5121 215.771 55.8193C215.32 55.1265 214.695 54.5843 213.896 54.1927C213.098 53.8011 212.187 53.6053 211.163 53.6053C210.124 53.6053 209.205 53.8086 208.407 54.2153C207.608 54.6069 206.983 55.1491 206.531 55.8419C206.08 56.5196 205.854 57.3028 205.854 58.1914C205.854 58.9294 206.012 59.6222 206.328 60.2698C206.644 60.9175 207.096 61.4145 207.684 61.7609C206.012 62.6344 205.176 63.9974 205.176 65.8499C205.176 66.7837 205.417 67.6422 205.899 68.4254C206.396 69.2086 207.089 69.8336 207.977 70.3005C208.881 70.7523 209.943 70.9782 211.163 70.9782ZM211.163 60.5635C210.5 60.5635 209.958 60.3602 209.536 59.9535C209.129 59.5318 208.926 59.0047 208.926 58.3721C208.926 57.7546 209.129 57.2426 209.536 56.8359C209.958 56.4142 210.5 56.2034 211.163 56.2034C211.825 56.2034 212.36 56.4142 212.767 56.8359C213.173 57.2426 213.377 57.7546 213.377 58.3721C213.377 59.0047 213.173 59.5318 212.767 59.9535C212.36 60.3602 211.825 60.5635 211.163 60.5635ZM211.163 68.3802C210.289 68.3802 209.589 68.1392 209.062 67.6573C208.535 67.1753 208.271 66.5428 208.271 65.7596C208.271 64.9764 208.535 64.3514 209.062 63.8845C209.589 63.4025 210.289 63.1615 211.163 63.1615C212.036 63.1615 212.737 63.4025 213.264 63.8845C213.806 64.3514 214.077 64.9764 214.077 65.7596C214.077 66.5428 213.806 67.1753 213.264 67.6573C212.737 68.1392 212.036 68.3802 211.163 68.3802Z" fill="#0B0A33"/>
<path d="M133.643 84.7141V95.1813H131.926V88.0125L128.733 95.1813H127.543L124.335 88.0125V95.1813H122.618V84.7141H124.471L128.146 92.9224L131.806 84.7141H133.643ZM139.499 95.3169C138.716 95.3169 138.008 95.1418 137.375 94.7898C136.743 94.4283 136.246 93.9265 135.884 93.2838C135.523 92.6312 135.342 91.8782 135.342 91.0247C135.342 90.1813 135.528 89.4333 135.899 88.7806C136.271 88.128 136.778 87.626 137.42 87.2745C138.063 86.9231 138.782 86.7474 139.574 86.7474C140.368 86.7474 141.086 86.9231 141.728 87.2745C142.371 87.626 142.878 88.128 143.249 88.7806C143.621 89.4333 143.806 90.1813 143.806 91.0247C143.806 91.8681 143.616 92.6162 143.234 93.2688C142.853 93.9215 142.33 94.4283 141.668 94.7898C141.015 95.1418 140.292 95.3169 139.499 95.3169ZM139.499 93.826C139.941 93.826 140.353 93.7206 140.734 93.5098C141.125 93.2989 141.442 92.9826 141.683 92.5609C141.924 92.1392 142.044 91.6271 142.044 91.0247C142.044 90.4222 141.929 89.9153 141.698 89.5035C141.467 89.0818 141.161 88.7655 140.779 88.5547C140.398 88.3438 139.986 88.2384 139.544 88.2384C139.103 88.2384 138.691 88.3438 138.309 88.5547C137.938 88.7655 137.642 89.0818 137.42 89.5035C137.2 89.9153 137.089 90.4222 137.089 91.0247C137.089 91.9184 137.315 92.6112 137.767 93.1031C138.229 93.5851 138.806 93.826 139.499 93.826ZM149.691 86.7474C150.344 86.7474 150.926 86.8829 151.439 87.154C151.96 87.4251 152.367 87.8268 152.658 88.3589C152.949 88.8911 153.095 89.5337 153.095 90.2867V95.1813H151.393V90.5427C151.393 89.7998 151.207 89.2324 150.836 88.8408C150.464 88.4393 149.957 88.2384 149.315 88.2384C148.672 88.2384 148.16 88.4393 147.779 88.8408C147.407 89.2324 147.221 89.7998 147.221 90.5427V95.1813H145.504V86.8829H147.221V87.8318C147.502 87.4904 147.859 87.2243 148.291 87.0335C148.732 86.8428 149.199 86.7474 149.691 86.7474ZM157.288 88.2836V92.8772C157.288 93.1885 157.358 93.4144 157.499 93.5549C157.649 93.6855 157.901 93.7507 158.252 93.7507H159.306V95.1813H157.951C157.178 95.1813 156.585 95.0006 156.173 94.6391C155.762 94.2777 155.556 93.6905 155.556 92.8772V88.2836H154.577V86.8829H155.556V84.8195H157.288V86.8829H159.306V88.2836H157.288ZM165.181 86.7474C165.813 86.7474 166.376 86.8829 166.868 87.154C167.37 87.4251 167.762 87.8268 168.042 88.3589C168.334 88.8911 168.479 89.5337 168.479 90.2867V95.1813H166.777V90.5427C166.777 89.7998 166.592 89.2324 166.22 88.8408C165.849 88.4393 165.342 88.2384 164.699 88.2384C164.057 88.2384 163.545 88.4393 163.163 88.8408C162.792 89.2324 162.605 89.7998 162.605 90.5427V95.1813H160.888V84.0364H162.605V87.8468C162.897 87.4954 163.263 87.2243 163.705 87.0335C164.157 86.8428 164.649 86.7474 165.181 86.7474ZM172.387 84.0364V95.1813H170.67V84.0364H172.387ZM182.111 86.8829L177.021 99.0822H175.243L176.93 95.0458L173.662 86.8829H175.575L177.909 93.2085L180.334 86.8829H182.111ZM196.34 84.7141L192.409 95.1813H190.421L186.475 84.7141H188.313L191.415 93.4194L194.533 84.7141H196.34ZM198.65 85.7835C198.339 85.7835 198.078 85.678 197.867 85.4672C197.656 85.2563 197.551 84.9953 197.551 84.684C197.551 84.3728 197.656 84.1117 197.867 83.9008C198.078 83.69 198.339 83.5845 198.65 83.5845C198.951 83.5845 199.207 83.69 199.418 83.9008C199.629 84.1117 199.735 84.3728 199.735 84.684C199.735 84.9953 199.629 85.2563 199.418 85.4672C199.207 85.678 198.951 85.7835 198.65 85.7835ZM199.494 86.8829V95.1813H197.777V86.8829H199.494ZM204.76 95.3169C204.107 95.3169 203.52 95.2021 202.998 94.9705C202.486 94.7295 202.079 94.4085 201.778 94.0068C201.477 93.5951 201.316 93.1383 201.296 92.6362H203.073C203.104 92.9877 203.269 93.2838 203.57 93.5248C203.881 93.7558 204.268 93.8712 204.73 93.8712C205.212 93.8712 205.583 93.7809 205.845 93.6001C206.116 93.4094 206.251 93.1684 206.251 92.8772C206.251 92.566 206.101 92.335 205.799 92.1844C205.508 92.0338 205.041 91.8681 204.399 91.6874C203.776 91.5167 203.269 91.351 202.878 91.1904C202.486 91.0298 202.144 90.7837 201.853 90.4524C201.572 90.121 201.432 89.6843 201.432 89.1421C201.432 88.7003 201.562 88.2986 201.823 87.9372C202.084 87.5657 202.456 87.2745 202.938 87.0636C203.429 86.8528 203.992 86.7474 204.625 86.7474C205.568 86.7474 206.327 86.9883 206.899 87.4703C207.481 87.9423 207.792 88.5899 207.833 89.4132H206.116C206.086 89.0417 205.935 88.7455 205.664 88.5246C205.393 88.3037 205.026 88.1932 204.564 88.1932C204.113 88.1932 203.766 88.2786 203.525 88.4493C203.284 88.62 203.164 88.8459 203.164 89.127C203.164 89.3479 203.244 89.5337 203.405 89.6843C203.565 89.8349 203.761 89.9554 203.992 90.0457C204.223 90.1261 204.564 90.2315 205.016 90.362C205.619 90.5227 206.11 90.6884 206.492 90.859C206.884 91.0197 207.22 91.2607 207.501 91.582C207.782 91.9033 207.928 92.33 207.938 92.8621C207.938 93.3341 207.807 93.7558 207.547 94.1273C207.285 94.4989 206.914 94.7898 206.432 95.0006C205.959 95.2115 205.402 95.3169 204.76 95.3169ZM210.666 85.7835C210.355 85.7835 210.094 85.678 209.883 85.4672C209.672 85.2563 209.567 84.9953 209.567 84.684C209.567 84.3728 209.672 84.1117 209.883 83.9008C210.094 83.69 210.355 83.5845 210.666 83.5845C210.967 83.5845 211.223 83.69 211.434 83.9008C211.645 84.1117 211.75 84.3728 211.75 84.684C211.75 84.9953 211.645 85.2563 211.434 85.4672C211.223 85.678 210.967 85.7835 210.666 85.7835ZM211.509 86.8829V95.1813H209.792V86.8829H211.509ZM215.767 88.2836V92.8772C215.767 93.1885 215.838 93.4144 215.978 93.5549C216.128 93.6855 216.38 93.7507 216.731 93.7507H217.785V95.1813H216.43C215.657 95.1813 215.064 95.0006 214.652 94.6391C214.241 94.2777 214.035 93.6905 214.035 92.8772V88.2836H213.056V86.8829H214.035V84.8195H215.767V86.8829H217.785V88.2836H215.767ZM222.967 95.3169C222.184 95.3169 221.476 95.1418 220.844 94.7898C220.211 94.4283 219.714 93.9265 219.352 93.2838C218.991 92.6312 218.81 91.8782 218.81 91.0247C218.81 90.1813 218.997 89.4333 219.368 88.7806C219.739 88.128 220.247 87.626 220.889 87.2745C221.532 86.9231 222.25 86.7474 223.042 86.7474C223.836 86.7474 224.554 86.9231 225.196 87.2745C225.839 87.626 226.346 88.128 226.717 88.7806C227.089 89.4333 227.275 90.1813 227.275 91.0247C227.275 91.8681 227.084 92.6162 226.702 93.2688C226.321 93.9215 225.799 94.4283 225.136 94.7898C224.484 95.1418 223.761 95.3169 222.967 95.3169ZM222.967 93.826C223.41 93.826 223.821 93.7206 224.202 93.5098C224.594 93.2989 224.91 92.9826 225.151 92.5609C225.392 92.1392 225.512 91.6271 225.512 91.0247C225.512 90.4222 225.398 89.9153 225.166 89.5035C224.935 89.0818 224.629 88.7655 224.247 88.5547C223.866 88.3438 223.455 88.2384 223.012 88.2384C222.571 88.2384 222.159 88.3438 221.777 88.5547C221.406 88.7655 221.11 89.0818 220.889 89.5035C220.668 89.9153 220.557 90.4222 220.557 91.0247C220.557 91.9184 220.783 92.6112 221.235 93.1031C221.697 93.5851 222.274 93.826 222.967 93.826ZM230.689 88.0878C230.94 87.6661 231.271 87.3398 231.683 87.1088C232.104 86.8678 232.601 86.7474 233.174 86.7474V88.5246H232.737C232.065 88.5246 231.553 88.6953 231.201 89.0366C230.86 89.378 230.689 89.9704 230.689 90.8138V95.1813H228.972V86.8829H230.689V88.0878ZM237.765 95.3169C237.112 95.3169 236.525 95.2021 236.002 94.9705C235.49 94.7295 235.084 94.4085 234.783 94.0068C234.481 93.5951 234.32 93.1383 234.301 92.6362H236.078C236.108 92.9877 236.274 93.2838 236.575 93.5248C236.886 93.7558 237.272 93.8712 237.734 93.8712C238.216 93.8712 238.588 93.7809 238.849 93.6001C239.12 93.4094 239.256 93.1684 239.256 92.8772C239.256 92.566 239.105 92.335 238.804 92.1844C238.513 92.0338 238.046 91.8681 237.403 91.6874C236.781 91.5167 236.274 91.351 235.882 91.1904C235.49 91.0298 235.149 90.7837 234.858 90.4524C234.576 90.121 234.436 89.6843 234.436 89.1421C234.436 88.7003 234.567 88.2986 234.828 87.9372C235.088 87.5657 235.46 87.2745 235.942 87.0636C236.435 86.8528 236.996 86.7474 237.629 86.7474C238.573 86.7474 239.331 86.9883 239.903 87.4703C240.486 87.9423 240.797 88.5899 240.837 89.4132H239.12C239.09 89.0417 238.939 88.7455 238.668 88.5246C238.397 88.3037 238.031 88.1932 237.569 88.1932C237.117 88.1932 236.771 88.2786 236.53 88.4493C236.289 88.62 236.168 88.8459 236.168 89.127C236.168 89.3479 236.248 89.5337 236.409 89.6843C236.57 89.8349 236.766 89.9554 236.996 90.0457C237.227 90.1261 237.569 90.2315 238.021 90.362C238.623 90.5227 239.115 90.6884 239.497 90.859C239.888 91.0197 240.224 91.2607 240.506 91.582C240.787 91.9033 240.932 92.33 240.942 92.8621C240.942 93.3341 240.812 93.7558 240.551 94.1273C240.29 94.4989 239.918 94.7898 239.436 95.0006C238.965 95.2115 238.408 95.3169 237.765 95.3169Z" fill="#7E819F"/>
<path d="M140.786 121.488V326.695" stroke="#F3F4F9"/>
<path d="M226.445 121.488V326.695" stroke="#F3F4F9"/>
<path d="M312.105 121.488V326.695" stroke="#F3F4F9"/>
<path d="M55.1262 121.488V326.695" stroke="#F3F4F9"/>
<mask id="mask1_28_437" style="mask-type:alpha" maskUnits="userSpaceOnUse" x="48" y="121" width="284" height="216">
<path d="M331.403 121.488H48.0676V336.108H331.403V121.488Z" fill="#D9D9D9"/>
</mask>
<g mask="url(#mask1_28_437)">
<path d="M297.496 183.12C323.929 182.129 308.086 129.191 334.41 126.606C337.721 126.281 342.929 126.606 342.929 126.606L334.41 339.007H44.7744V246.229C44.7744 246.229 73.6181 248.046 90.2075 241.519C107.951 234.539 109.657 214.084 128.542 211.378C139.46 209.814 145.512 216.926 156.464 215.616C178.62 212.969 178.341 182.155 200.477 179.353C223.109 176.488 231.446 212.197 253.009 204.784C266.349 200.198 264.576 181.214 278.565 179.353C286.038 178.359 289.961 183.404 297.496 183.12Z" fill="url(#paint6_linear_28_437)" stroke="url(#paint7_linear_28_437)" stroke-width="4"/>
</g>
<path d="M225.975 207.148C232.213 207.148 237.27 202.091 237.27 195.852C237.27 189.614 232.213 184.556 225.975 184.556C219.736 184.556 214.679 189.614 214.679 195.852C214.679 202.091 219.736 207.148 225.975 207.148Z" fill="url(#paint8_linear_28_437)" stroke="white" stroke-width="4"/>
<path d="M78.7015 357.758H58.2938C56.5327 357.758 55.105 359.186 55.105 360.947C55.105 362.708 56.5327 364.136 58.2938 364.136H78.7015C80.4626 364.136 81.8902 362.708 81.8902 360.947C81.8902 359.186 80.4626 357.758 78.7015 357.758Z" fill="#D9DBE9" fill-opacity="0.46"/>
<path d="M131.487 357.758H111.079C109.318 357.758 107.89 359.186 107.89 360.947C107.89 362.708 109.318 364.136 111.079 364.136H131.487C133.248 364.136 134.675 362.708 134.675 360.947C134.675 359.186 133.248 357.758 131.487 357.758Z" fill="#D9DBE9" fill-opacity="0.46"/>
<path d="M184.272 357.758H163.864C162.103 357.758 160.675 359.186 160.675 360.947C160.675 362.708 162.103 364.136 163.864 364.136H184.272C186.033 364.136 187.461 362.708 187.461 360.947C187.461 359.186 186.033 357.758 184.272 357.758Z" fill="#D9DBE9" fill-opacity="0.46"/>
<path d="M237.057 357.758H216.649C214.888 357.758 213.461 359.186 213.461 360.947C213.461 362.708 214.888 364.136 216.649 364.136H237.057C238.818 364.136 240.246 362.708 240.246 360.947C240.246 359.186 238.818 357.758 237.057 357.758Z" fill="#D9DBE9" fill-opacity="0.46"/>
<g filter="url(#filter2_dd_28_437)">
<path d="M265.51 120.547H186.44C183.841 120.547 181.733 122.654 181.733 125.254V156.317C181.733 158.916 183.841 161.023 186.44 161.023H265.51C268.11 161.023 270.217 158.916 270.217 156.317V125.254C270.217 122.654 268.11 120.547 265.51 120.547Z" fill="white"/>
</g>
<path d="M207.544 136.706H203.129V139.328C203.314 139.083 203.586 138.876 203.946 138.709C204.315 138.542 204.706 138.459 205.119 138.459C205.857 138.459 206.455 138.617 206.912 138.933C207.377 139.249 207.707 139.649 207.9 140.132C208.102 140.615 208.203 141.125 208.203 141.661C208.203 142.311 208.076 142.891 207.821 143.401C207.575 143.901 207.201 144.297 206.701 144.587C206.208 144.877 205.602 145.021 204.882 145.021C203.925 145.021 203.156 144.784 202.576 144.31C201.996 143.835 201.649 143.208 201.535 142.425H202.998C203.094 142.839 203.309 143.168 203.643 143.414C203.977 143.651 204.394 143.77 204.895 143.77C205.519 143.77 205.984 143.58 206.292 143.203C206.608 142.825 206.767 142.325 206.767 141.701C206.767 141.068 206.608 140.585 206.292 140.251C205.976 139.908 205.51 139.737 204.895 139.737C204.465 139.737 204.1 139.847 203.801 140.066C203.511 140.277 203.301 140.567 203.169 140.936H201.746V135.388H207.544V136.706ZM211.387 140.001C210.474 139.544 210.017 138.823 210.017 137.839C210.017 137.365 210.136 136.93 210.373 136.535C210.61 136.139 210.966 135.828 211.44 135.599C211.915 135.362 212.494 135.243 213.18 135.243C213.857 135.243 214.432 135.362 214.906 135.599C215.39 135.828 215.75 136.139 215.987 136.535C216.224 136.93 216.343 137.365 216.343 137.839C216.343 138.332 216.215 138.766 215.96 139.144C215.715 139.513 215.385 139.798 214.972 140.001C215.473 140.185 215.868 140.488 216.158 140.91C216.448 141.323 216.593 141.811 216.593 142.373C216.593 142.944 216.448 143.449 216.158 143.888C215.868 144.328 215.464 144.666 214.946 144.903C214.428 145.14 213.839 145.259 213.18 145.259C212.521 145.259 211.932 145.14 211.414 144.903C210.905 144.666 210.505 144.328 210.215 143.888C209.925 143.449 209.78 142.944 209.78 142.373C209.78 141.801 209.925 141.31 210.215 140.897C210.505 140.483 210.896 140.185 211.387 140.001ZM214.906 138.024C214.906 137.531 214.753 137.154 214.445 136.89C214.138 136.627 213.716 136.495 213.18 136.495C212.653 136.495 212.236 136.627 211.928 136.89C211.621 137.154 211.467 137.536 211.467 138.037C211.467 138.477 211.625 138.836 211.941 139.118C212.267 139.39 212.679 139.526 213.18 139.526C213.681 139.526 214.094 139.386 214.419 139.104C214.744 138.823 214.906 138.463 214.906 138.024ZM213.18 140.659C212.6 140.659 212.125 140.804 211.756 141.094C211.397 141.376 211.216 141.784 211.216 142.32C211.216 142.821 211.392 143.229 211.743 143.546C212.095 143.853 212.574 144.007 213.18 144.007C213.777 144.007 214.247 143.849 214.59 143.532C214.942 143.216 215.117 142.812 215.117 142.32C215.117 141.793 214.937 141.384 214.577 141.094C214.226 140.804 213.76 140.659 213.18 140.659ZM223.337 137.642C223.24 137.238 223.064 136.935 222.809 136.732C222.554 136.53 222.198 136.429 221.742 136.429C221.048 136.429 220.53 136.697 220.187 137.233C219.844 137.76 219.664 138.638 219.647 139.869C219.875 139.482 220.209 139.183 220.648 138.973C221.088 138.762 221.562 138.656 222.071 138.656C222.651 138.656 223.16 138.783 223.6 139.038C224.048 139.284 224.395 139.645 224.641 140.119C224.896 140.594 225.023 141.16 225.023 141.819C225.023 142.434 224.9 142.984 224.654 143.466C224.417 143.949 224.061 144.332 223.587 144.613C223.112 144.885 222.541 145.021 221.874 145.021C220.969 145.021 220.257 144.824 219.739 144.428C219.23 144.025 218.869 143.458 218.658 142.728C218.456 141.999 218.355 141.09 218.355 140.001C218.355 136.785 219.488 135.177 221.755 135.177C222.633 135.177 223.323 135.414 223.824 135.889C224.333 136.363 224.633 136.948 224.72 137.642H223.337ZM221.742 139.921C221.206 139.921 220.749 140.084 220.371 140.409C220.002 140.725 219.818 141.187 219.818 141.793C219.818 142.399 219.989 142.882 220.332 143.242C220.683 143.594 221.171 143.77 221.795 143.77C222.348 143.77 222.783 143.598 223.099 143.256C223.424 142.913 223.587 142.456 223.587 141.885C223.587 141.287 223.429 140.813 223.112 140.462C222.805 140.101 222.348 139.921 221.742 139.921ZM228.471 143.216L226.877 146.853H225.902L226.837 143.216H228.471ZM230.416 142.979C231.26 142.249 231.923 141.653 232.406 141.187C232.898 140.712 233.307 140.22 233.632 139.711C233.956 139.201 234.119 138.691 234.119 138.182C234.119 137.655 233.992 137.242 233.737 136.943C233.491 136.645 233.1 136.495 232.564 136.495C232.046 136.495 231.642 136.662 231.352 136.996C231.07 137.321 230.922 137.76 230.904 138.314H229.454C229.48 137.312 229.779 136.548 230.35 136.021C230.93 135.485 231.663 135.217 232.551 135.217C233.508 135.217 234.256 135.48 234.791 136.007C235.336 136.535 235.608 137.238 235.608 138.116C235.608 138.749 235.446 139.359 235.121 139.948C234.805 140.528 234.422 141.05 233.974 141.516C233.535 141.973 232.973 142.504 232.287 143.111L231.694 143.638H235.872V144.89H229.467V143.796L230.416 142.979ZM243.28 136.574L239.617 145.021H238.101L241.804 136.732H236.928V135.454H243.28V136.574ZM244.381 143.018V141.885L248.809 135.533H250.628V141.714H251.854V143.018H250.628V145.021H249.152V143.018H244.381ZM249.218 137.062L246.108 141.714H249.218V137.062Z" fill="#0B0A33"/>
<defs>
<filter id="filter0_dd_28_437" x="0" y="0" width="402.934" height="460" filterUnits="userSpaceOnUse" color-interpolation-filters="sRGB">
<feFlood flood-opacity="0" result="BackgroundImageFix"/>
<feColorMatrix in="SourceAlpha" type="matrix" values="0 0 0 0 0 0 0 0 0 0 0 0 0 0 0 0 0 0 127 0" result="hardAlpha"/>
<feOffset dx="26" dy="36"/>
<feGaussianBlur stdDeviation="11"/>
<feComposite in2="hardAlpha" operator="out"/>
<feColorMatrix type="matrix" values="0 0 0 0 0.305486 0 0 0 0 0.289097 0 0 0 0 0.383333 0 0 0 0.08 0"/>
<feBlend mode="normal" in2="BackgroundImageFix" result="effect1_dropShadow_28_437"/>
<feColorMatrix in="SourceAlpha" type="matrix" values="0 0 0 0 0 0 0 0 0 0 0 0 0 0 0 0 0 0 127 0" result="hardAlpha"/>
<feOffset dx="1" dy="1"/>
<feGaussianBlur stdDeviation="1"/>
<feComposite in2="hardAlpha" operator="out"/>
<feColorMatrix type="matrix" values="0 0 0 0 0.438414 0 0 0 0 0.418924 0 0 0 0 0.529167 0 0 0 0.19 0"/>
<feBlend mode="normal" in2="effect1_dropShadow_28_437" result="effect2_dropShadow_28_437"/>
<feBlend mode="normal" in="SourceGraphic" in2="effect2_dropShadow_28_437" result="shape"/>
</filter>
<filter id="filter1_d_28_437" x="29.2281" y="36.8765" width="80.0333" height="78.251" filterUnits="userSpaceOnUse" color-interpolation-filters="sRGB">
<feFlood flood-opacity="0" result="BackgroundImageFix"/>
<feColorMatrix in="SourceAlpha" type="matrix" values="0 0 0 0 0 0 0 0 0 0 0 0 0 0 0 0 0 0 127 0" result="hardAlpha"/>
<feOffset dy="2"/>
<feGaussianBlur stdDeviation="3.3"/>
<feComposite in2="hardAlpha" operator="out"/>
<feColorMatrix type="matrix" values="0 0 0 0 0.501961 0 0 0 0 0 0 0 0 0 1 0 0 0 0.08 0"/>
<feBlend mode="normal" in2="BackgroundImageFix" result="effect1_dropShadow_28_437"/>
<feBlend mode="normal" in="SourceGraphic" in2="effect1_dropShadow_28_437" result="shape"/>
</filter>
<filter id="filter2_dd_28_437" x="159.733" y="100.547" width="132.484" height="84.4765" filterUnits="userSpaceOnUse" color-interpolation-filters="sRGB">
<feFlood flood-opacity="0" result="BackgroundImageFix"/>
<feColorMatrix in="SourceAlpha" type="matrix" values="0 0 0 0 0 0 0 0 0 0 0 0 0 0 0 0 0 0 127 0" result="hardAlpha"/>
<feOffset dy="2"/>
<feGaussianBlur stdDeviation="11"/>
<feComposite in2="hardAlpha" operator="out"/>
<feColorMatrix type="matrix" values="0 0 0 0 0.305486 0 0 0 0 0.289097 0 0 0 0 0.383333 0 0 0 0.08 0"/>
<feBlend mode="normal" in2="BackgroundImageFix" result="effect1_dropShadow_28_437"/>
<feColorMatrix in="SourceAlpha" type="matrix" values="0 0 0 0 0 0 0 0 0 0 0 0 0 0 0 0 0 0 127 0" result="hardAlpha"/>
<feOffset dx="1" dy="1"/>
<feGaussianBlur stdDeviation="1"/>
<feComposite in2="hardAlpha" operator="out"/>
<feColorMatrix type="matrix" values="0 0 0 0 0.438414 0 0 0 0 0.418924 0 0 0 0 0.529167 0 0 0 0.19 0"/>
<feBlend mode="normal" in2="effect1_dropShadow_28_437" result="effect2_dropShadow_28_437"/>
<feBlend mode="normal" in="SourceGraphic" in2="effect2_dropShadow_28_437" result="shape"/>
</filter>
<linearGradient id="paint0_linear_28_437" x1="29.3002" y1="92.4074" x2="80.9874" y2="81.3017" gradientUnits="userSpaceOnUse">
<stop stop-color="#00E0A3"/>
<stop offset="1" stop-color="#00DED5"/>
</linearGradient>
<linearGradient id="paint1_linear_28_437" x1="90.6732" y1="93.5291" x2="62.5336" y2="69.3219" gradientUnits="userSpaceOnUse">
<stop stop-color="#FFC600" stop-opacity="0.56"/>
<stop offset="1" stop-color="#FF7F00"/>
</linearGradient>
<linearGradient id="paint2_linear_28_437" x1="49.6006" y1="104.654" x2="72.8864" y2="110.057" gradientUnits="userSpaceOnUse">
<stop stop-color="#00E0A3"/>
<stop offset="1" stop-color="#00DED5"/>
</linearGradient>
<linearGradient id="paint3_linear_28_437" x1="62.0416" y1="81.8448" x2="68.3085" y2="35.121" gradientUnits="userSpaceOnUse">
<stop stop-color="#FFB199"/>
<stop offset="1" stop-color="#FF0844"/>
</linearGradient>
<linearGradient id="paint4_linear_28_437" x1="90.702" y1="77.5251" x2="67.8936" y2="63.123" gradientUnits="userSpaceOnUse">
<stop offset="0.0729167" stop-color="#FFCA51"/>
<stop offset="1" stop-color="#FF7F00"/>
</linearGradient>
<linearGradient id="paint5_linear_28_437" x1="69.2747" y1="64.0663" x2="69.2747" y2="83.8339" gradientUnits="userSpaceOnUse">
<stop stop-color="#792FFF"/>
<stop offset="1" stop-color="#C600FF"/>
</linearGradient>
<linearGradient id="paint6_linear_28_437" x1="288.03" y1="341.689" x2="395.396" y2="170.276" gradientUnits="userSpaceOnUse">
<stop stop-color="#FF4AA4" stop-opacity="0"/>
<stop offset="1" stop-color="#6100FF" stop-opacity="0.31"/>
</linearGradient>
<linearGradient id="paint7_linear_28_437" x1="42.8814" y1="276.842" x2="335.582" y2="112.666" gradientUnits="userSpaceOnUse">
<stop offset="0.109375" stop-color="#FF548D" stop-opacity="0.51"/>
<stop offset="0.463542" stop-color="#D700FF" stop-opacity="0.59"/>
<stop offset="0.838542" stop-color="#5606EF"/>
</linearGradient>
<linearGradient id="paint8_linear_28_437" x1="225.975" y1="186.439" x2="234.075" y2="203.704" gradientUnits="userSpaceOnUse">
<stop stop-color="#FBBF04"/>
<stop offset="1" stop-color="#FF0013"/>
</linearGradient>
</defs>
</svg>
