<svg width="60" height="31" viewBox="0 0 60 31" fill="none" xmlns="http://www.w3.org/2000/svg">
<g clip-path="url(#clip0_28_580)">
<mask id="mask0_28_580" style="mask-type:luminance" maskUnits="userSpaceOnUse" x="3" y="4" width="23" height="29">
<path d="M3.68376 4.85406H25.8016V32.4286H3.68376V4.85406Z" fill="white"/>
</mask>
<g mask="url(#mask0_28_580)">
<path d="M11.2562 7.3753C11.4678 6.81993 11.7587 6.30863 12.1906 5.89431C13.9184 4.21057 16.7746 4.63371 17.9471 6.7494C18.8286 8.35381 19.763 9.92295 20.671 11.5097L25.2198 19.4259C26.4804 21.6386 25.114 24.4331 22.6104 24.8122C21.0765 25.0414 19.6396 24.3361 18.8462 22.9609L14.8441 16.0144C14.8176 15.9615 14.7823 15.9174 14.7471 15.8733C14.606 15.7587 14.5443 15.5912 14.4562 15.4414L11.5118 10.3373C11.168 9.73782 11.0094 9.08548 11.027 8.39788C11.0534 8.04527 11.0975 7.69265 11.2562 7.3753Z" fill="#0081FB"/>
<path d="M11.2562 7.37531C11.1769 7.69266 11.1063 8.01001 11.0887 8.345C11.0623 9.08549 11.2474 9.77309 11.6176 10.4166L14.5179 15.4326C14.606 15.5824 14.6766 15.7323 14.7647 15.8734L13.1691 18.6149L10.9388 22.4585C10.9036 22.4585 10.8948 22.4408 10.8859 22.4144C10.8771 22.3439 10.9036 22.2821 10.9212 22.2116C11.2826 20.8893 10.9829 19.7169 10.0749 18.7119C9.51956 18.1036 8.81433 17.7598 8.00331 17.6452C6.94546 17.4954 6.01103 17.7687 5.17357 18.4298C5.02371 18.5444 4.92674 18.7119 4.75043 18.8001C4.71517 18.8001 4.69754 18.7824 4.68872 18.756L5.94932 16.561L11.1945 7.47227C11.2121 7.43701 11.2386 7.41057 11.2562 7.37531Z" fill="#FFC600"/>
<path d="M4.72398 18.7824L5.22646 18.3328C7.3686 16.6403 10.5862 17.8656 11.0534 20.5455C11.168 21.189 11.1063 21.8061 10.9124 22.4232C10.9036 22.4761 10.8948 22.5201 10.8771 22.573C10.7978 22.7141 10.7273 22.8639 10.6391 23.005C9.85454 24.3009 8.69972 24.9444 7.18348 24.8474C5.44684 24.724 4.08046 23.4193 3.84244 21.6915C3.72784 20.854 3.89533 20.0695 4.32729 19.3466C4.41544 19.1879 4.52123 19.0469 4.61819 18.8882C4.66227 18.8529 4.64464 18.7824 4.72398 18.7824Z" fill="#14D862"/>
<path d="M4.72398 18.7825C4.68872 18.8177 4.68872 18.8794 4.62701 18.8882C4.6182 18.8265 4.65346 18.7913 4.68872 18.7472L4.72398 18.7825Z" fill="#FFC600"/>
<path d="M10.8771 22.573C10.8419 22.5113 10.8771 22.4672 10.9124 22.4232L10.9476 22.4584L10.8771 22.573Z" fill="#E1C025"/>
</g>
<mask id="mask1_28_580" style="mask-type:luminance" maskUnits="userSpaceOnUse" x="25" y="-46" width="51" height="64">
<path d="M25.0594 -45.5099H75.3126V17.1413H25.0594V-45.5099Z" fill="white"/>
</mask>
<g mask="url(#mask1_28_580)">
<path d="M29.2055 6.646C26.9422 6.646 25.0594 8.46865 25.0594 10.7119C25.0594 12.9552 26.9422 14.7578 29.2055 14.7578C30.4272 14.7578 31.3285 14.3572 32.0496 13.6161C32.7907 12.8751 33.011 11.8536 33.011 11.0324C33.011 10.772 32.991 10.5317 32.9509 10.3314H29.2055V11.433H31.8693C31.7892 12.0539 31.5889 12.5145 31.2685 12.835C30.8879 13.2156 30.267 13.6562 29.2055 13.6562C27.5631 13.6562 26.2812 12.3343 26.2812 10.7119C26.2812 9.08956 27.5631 7.76763 29.2055 7.76763C30.0867 7.76763 30.7477 8.10813 31.2084 8.5688L31.9895 7.78766C31.3285 7.14673 30.4473 6.646 29.2055 6.646ZM35.9953 9.55022C34.5733 9.55022 33.3915 10.6518 33.3915 12.1941C33.3915 13.7163 34.5532 14.8379 35.9953 14.8379C37.4374 14.8379 38.5991 13.7163 38.5991 12.1941C38.5991 10.6719 37.4174 9.55022 35.9953 9.55022ZM35.9953 13.7964C35.2142 13.7964 34.5332 13.1354 34.5332 12.1941C34.5332 11.2527 35.2142 10.5917 35.9953 10.5917C36.7765 10.5917 37.4575 11.2327 37.4575 12.1941C37.4575 13.1354 36.7765 13.7964 35.9953 13.7964ZM41.6436 9.55022C40.2015 9.55022 39.0398 10.6518 39.0398 12.1941C39.0398 13.7163 40.2015 14.8379 41.6436 14.8379C43.0656 14.8379 44.2473 13.7163 44.2473 12.1941C44.2473 10.6719 43.0857 9.55022 41.6436 9.55022ZM41.6436 13.7964C40.8624 13.7964 40.1814 13.1354 40.1814 12.1941C40.1814 11.2527 40.8624 10.5917 41.6436 10.5917C42.4247 10.5917 43.1057 11.2327 43.1057 12.1941C43.1057 13.1354 42.4447 13.7964 41.6436 13.7964ZM47.2717 9.55022C45.9699 9.55022 44.7881 10.6919 44.7881 12.174C44.7881 13.6362 45.9699 14.7778 47.2717 14.7778C47.8926 14.7778 48.3733 14.4974 48.6337 14.177H48.6738V14.5575C48.6738 15.559 48.153 16.0998 47.2918 16.0998C46.5908 16.0998 46.1701 15.599 45.9899 15.1784L44.9884 15.599C45.2688 16.3 46.0299 17.1413 47.2918 17.1413C48.6337 17.1413 49.7554 16.3401 49.7554 14.4173V9.73048H48.6738V10.1511H48.6337C48.3733 9.83063 47.8926 9.55022 47.2717 9.55022ZM47.3719 13.7563C46.5908 13.7563 45.9298 13.0954 45.9298 12.174C45.9298 11.2527 46.5908 10.5717 47.3719 10.5717C48.153 10.5717 48.7539 11.2527 48.7539 12.174C48.7539 13.0954 48.153 13.7563 47.3719 13.7563ZM50.5966 6.96646H51.7382V14.6977H50.5966V6.96646ZM54.8027 9.55022C53.4407 9.55022 52.2991 10.6118 52.2991 12.1941C52.2991 13.6762 53.4207 14.8379 54.9229 14.8379C56.1447 14.8379 56.8457 14.0968 57.1261 13.6762L56.2248 13.0754C55.9243 13.516 55.5037 13.7964 54.9229 13.7964C54.322 13.7964 53.9014 13.536 53.641 12.9952L57.1862 11.5331L57.066 11.2327C56.8457 10.6518 56.1647 9.55022 54.8027 9.55022ZM53.4407 12.114C53.4007 11.0925 54.2419 10.5717 54.8227 10.5717C55.2834 10.5717 55.684 10.792 55.8042 11.1325L53.4407 12.114Z" fill="#757575"/>
</g>
<mask id="mask2_28_580" style="mask-type:luminance" maskUnits="userSpaceOnUse" x="-2" y="-37" width="51" height="64">
<path d="M-1.5369 -36.1017H48.7162V26.5495H-1.5369V-36.1017Z" fill="white"/>
</mask>
<g mask="url(#mask2_28_580)">
<path d="M32.5928 23.9857L35.2366 16.9555H36.2581L38.902 23.9857H37.9005L37.2195 22.083H34.2752L33.5942 23.9857H32.5928ZM34.5757 21.2417H36.9191L35.7774 18.0771H35.7374L34.5757 21.2417ZM39.8233 23.4049C39.3827 22.9042 39.1623 22.3033 39.1623 21.5822C39.1623 20.8812 39.3827 20.2803 39.8233 19.7596C40.284 19.2589 40.8047 19.0185 41.4457 19.0185C41.8062 19.0185 42.1266 19.0986 42.4071 19.2388C42.7075 19.3991 42.9278 19.5793 43.088 19.8397H43.1281L43.088 19.1787V16.9555H43.9894V23.9857H43.1281V23.3248H43.088C42.9278 23.5651 42.7075 23.7654 42.4071 23.9257C42.1066 24.0859 41.7862 24.146 41.4457 24.146C40.8047 24.146 40.2639 23.9056 39.8233 23.4049ZM42.6674 22.8441C42.9679 22.5236 43.1081 22.103 43.1081 21.5822C43.1081 21.0815 42.9679 20.6609 42.6674 20.3404C42.387 20.02 42.0265 19.8597 41.5859 19.8597C41.1452 19.8597 40.7847 20.02 40.5043 20.3404C40.2039 20.6609 40.0636 21.0815 40.0636 21.5822C40.0636 22.083 40.2039 22.5036 40.5043 22.824C40.8047 23.1445 41.1653 23.3047 41.5859 23.3047C42.0265 23.3248 42.387 23.1645 42.6674 22.8441ZM48.1554 23.7053C47.7949 23.9857 47.3342 24.146 46.7734 24.146C46.2927 24.146 45.8721 24.0258 45.4915 23.7654C45.131 23.505 44.8706 23.1846 44.7104 22.764L45.5116 22.4235C45.6318 22.7039 45.792 22.9442 46.0323 23.1045C46.2527 23.2647 46.513 23.3448 46.7734 23.3448C47.0538 23.3448 47.2942 23.2847 47.4945 23.1645C47.6948 23.0444 47.7749 22.8841 47.7749 22.7239C47.7749 22.4235 47.5345 22.1831 47.0738 22.0429L46.2527 21.8426C45.3113 21.6023 44.8506 21.1616 44.8506 20.4806C44.8506 20.04 45.0309 19.6995 45.3914 19.4191C45.7519 19.1587 46.2126 19.0185 46.7534 19.0185C47.1602 19.0158 47.5606 19.1193 47.9151 19.3189C48.2556 19.5192 48.4959 19.7996 48.6361 20.1401L47.835 20.4806C47.7348 20.2803 47.5946 20.1201 47.3943 19.9999C47.194 19.8798 46.9537 19.8197 46.6933 19.8197C46.4529 19.8197 46.2527 19.8798 46.0524 19.9999C45.8721 20.1201 45.772 20.2603 45.772 20.4406C45.772 20.721 46.0323 20.9213 46.5531 21.0214L47.2741 21.2017C48.2355 21.442 48.6962 21.9227 48.6962 22.6438C48.7162 23.0644 48.516 23.4249 48.1554 23.7053Z" fill="#757575"/>
</g>
</g>
<defs>
<clipPath id="clip0_28_580">
<rect width="60" height="30" fill="white" transform="translate(0 0.395996)"/>
</clipPath>
</defs>
</svg>
