<svg width="85" height="25" viewBox="0 0 85 25" fill="none" xmlns="http://www.w3.org/2000/svg">
<g clip-path="url(#clip0_28_682)">
<path d="M18.5409 4.94152C18.5271 4.81717 18.4165 4.7619 18.3336 4.74808C18.2507 4.73426 16.5927 4.72045 16.5927 4.72045C16.5927 4.72045 15.1972 3.36639 15.059 3.22822C14.9208 3.09005 14.6583 3.1315 14.5478 3.15913C14.5478 3.15913 14.2853 3.24204 13.8431 3.3802C13.774 3.14532 13.6635 2.85516 13.5115 2.56501C13.0141 1.61164 12.2956 1.11423 11.4113 1.11423C11.3561 1.11423 11.287 1.11423 11.2317 1.12804C11.2041 1.10041 11.1765 1.07278 11.1488 1.03133C10.7619 0.616819 10.2784 0.423382 9.69804 0.437199C8.56505 0.464832 7.44588 1.28003 6.52015 2.74463C5.87075 3.76708 5.38716 5.05205 5.24899 6.04687C3.9502 6.44756 3.03828 6.7239 3.02446 6.73772C2.37507 6.94497 2.34743 6.95879 2.26453 7.58055C2.19545 8.03651 0.482147 21.3146 0.482147 21.3146L14.8656 23.8016L21.097 22.2541C21.097 22.2541 18.5547 5.05205 18.5409 4.94152ZM13.1246 3.60128C12.793 3.69799 12.42 3.82235 12.0055 3.9467C11.9917 3.3802 11.9226 2.57882 11.66 1.88798C12.5305 2.05378 12.945 3.02096 13.1246 3.60128ZM11.2594 4.18159C10.4994 4.41647 9.68422 4.66518 8.85521 4.9277C9.09009 4.04342 9.53224 3.15913 10.0711 2.57882C10.2784 2.35775 10.5547 2.12286 10.8863 1.98469C11.2041 2.63409 11.2594 3.55982 11.2594 4.18159ZM9.71186 1.19713C9.97438 1.19713 10.1954 1.2524 10.3889 1.37675C10.0849 1.52874 9.78094 1.76362 9.5046 2.0676C8.78612 2.84134 8.23345 4.0296 8.01237 5.19022C7.32153 5.39748 6.65832 5.60473 6.03655 5.79817C6.45106 3.97433 7.97092 1.2524 9.71186 1.19713Z" fill="#95BF47"/>
<path d="M18.3336 4.74809C18.2507 4.73427 16.5927 4.72045 16.5927 4.72045C16.5927 4.72045 15.1972 3.3664 15.059 3.22823C15.0037 3.17296 14.9347 3.14532 14.8656 3.14532V23.8016L21.097 22.2541C21.097 22.2541 18.5547 5.06588 18.5409 4.94153C18.5132 4.81717 18.4165 4.76191 18.3336 4.74809Z" fill="#5E8E3E"/>
<path d="M11.4113 7.95361L10.6929 10.6617C10.6929 10.6617 9.89149 10.2887 8.9243 10.3578C7.51498 10.4407 7.50116 11.3249 7.51498 11.5598C7.59788 12.7757 10.7758 13.0382 10.9554 15.8707C11.0936 18.1091 9.76714 19.6289 7.8604 19.7533C5.56679 19.8914 4.30945 18.5512 4.30945 18.5512L4.79304 16.4925C4.79304 16.4925 6.0642 17.4458 7.07283 17.3906C7.73605 17.3491 7.97093 16.8103 7.9433 16.4234C7.84658 14.8483 5.249 14.9312 5.0832 12.3474C4.94503 10.1643 6.38199 7.95361 9.54606 7.74636C10.7896 7.63582 11.4113 7.95361 11.4113 7.95361Z" fill="white"/>
<path d="M29.5391 13.7291C28.8207 13.3422 28.4476 13.0106 28.4476 12.5546C28.4476 11.9743 28.9588 11.6013 29.774 11.6013C30.7136 11.6013 31.5426 11.9882 31.5426 11.9882L32.2058 9.97088C32.2058 9.97088 31.5979 9.50111 29.8155 9.50111C27.3284 9.50111 25.6013 10.9243 25.6013 12.9277C25.6013 14.0607 26.4027 14.9312 27.4804 15.5529C28.3509 16.0503 28.6549 16.3958 28.6549 16.9208C28.6549 17.4597 28.2265 17.888 27.4113 17.888C26.2093 17.888 25.0763 17.2662 25.0763 17.2662L24.3716 19.2835C24.3716 19.2835 25.4217 19.9882 27.1764 19.9882C29.7326 19.9882 31.5702 18.7308 31.5702 16.4648C31.584 15.2351 30.6583 14.3647 29.5391 13.7291ZM39.736 9.47347C38.4787 9.47347 37.4839 10.0676 36.7239 10.9795L36.6825 10.9657L37.774 5.24549H34.9277L32.1644 19.7947H35.0106L35.964 14.8206C36.3371 12.9415 37.3043 11.7809 38.2162 11.7809C38.8518 11.7809 39.1005 12.2092 39.1005 12.831C39.1005 13.2179 39.059 13.7015 38.9761 14.0883L37.8984 19.7809H40.7447L41.8638 13.8949C41.9882 13.2731 42.0711 12.527 42.0711 12.0434C42.0711 10.4545 41.2144 9.47347 39.736 9.47347ZM48.5098 9.47347C45.0832 9.47347 42.8172 12.5685 42.8172 16.0227C42.8172 18.2334 44.1851 20.002 46.7412 20.002C50.0987 20.002 52.3785 16.9899 52.3785 13.4527C52.3647 11.4217 51.1626 9.47347 48.5098 9.47347ZM47.1005 17.8189C46.1333 17.8189 45.7188 16.9899 45.7188 15.9674C45.7188 14.337 46.5616 11.6704 48.1091 11.6704C49.1177 11.6704 49.4493 12.5408 49.4493 13.3837C49.4493 15.1384 48.6065 17.8189 47.1005 17.8189ZM59.6462 9.47347C57.7257 9.47347 56.6341 11.1591 56.6341 11.1591H56.5927L56.7585 9.62546H54.2438C54.1195 10.6617 53.8984 12.223 53.6635 13.3975L51.6877 23.8154H54.534L55.3215 19.6013H55.3768C55.3768 19.6013 55.9571 19.9743 57.0486 19.9743C60.3923 19.9743 62.5754 16.5477 62.5754 13.0797C62.5892 11.1868 61.7326 9.47347 59.6462 9.47347ZM56.9243 17.8603C56.1782 17.8603 55.7499 17.4458 55.7499 17.4458L56.2196 14.7792C56.5512 13.0106 57.477 11.8224 58.4718 11.8224C59.3423 11.8224 59.6048 12.6237 59.6048 13.3975C59.6048 15.2351 58.5132 17.8603 56.9243 17.8603ZM66.6514 5.39748C65.7395 5.39748 65.021 6.11596 65.021 7.05551C65.021 7.89834 65.5599 8.47865 66.3613 8.47865H66.4027C67.287 8.47865 68.0607 7.88453 68.0746 6.82062C68.0746 5.99161 67.5219 5.39748 66.6514 5.39748ZM62.6721 19.7947H65.5184L67.4528 9.70836H64.5789L62.6721 19.7947ZM74.6929 9.68073H72.717L72.8138 9.21095C72.9796 8.24377 73.5599 7.3733 74.4994 7.3733C75.0107 7.3733 75.4113 7.51147 75.4113 7.51147L75.964 5.28694C75.964 5.28694 75.4666 5.03824 74.4165 5.03824C73.4079 5.03824 72.3993 5.32839 71.6255 5.99161C70.6583 6.82062 70.2024 8.00888 69.9675 9.21095L69.8846 9.68073H68.5581L68.1436 11.8224H69.4701L67.964 19.7947H70.8103L72.3164 11.8224H74.2784L74.6929 9.68073ZM81.5461 9.70836C81.5461 9.70836 79.7637 14.1989 78.9623 16.6445H78.9208C78.8656 15.8569 78.2162 9.70836 78.2162 9.70836H75.2317L76.945 18.9795C76.9865 19.1868 76.9588 19.3111 76.8898 19.4493C76.5581 20.0849 76.0055 20.7066 75.3423 21.1626C74.8034 21.5495 74.2093 21.7982 73.7257 21.964L74.5132 24.3819C75.0936 24.2576 76.2818 23.7878 77.3043 22.8344C78.6031 21.6186 79.8051 19.7395 81.0348 17.1833L84.5167 9.70836H81.5461Z" fill="black"/>
</g>
<defs>
<clipPath id="clip0_28_682">
<rect width="84.0069" height="24" fill="white" transform="translate(0.482147 0.395752)"/>
</clipPath>
</defs>
</svg>
